<?xml version="1.0" encoding="UTF-8"?>
<svg xmlns="http://www.w3.org/2000/svg" width="160" height="160" viewBox="0 0 160 160" fill="none">
  <g shape-rendering="crispEdges">
    <rect x="104" y="85" width="4" height="8" fill="#ffffe9" opacity="0.25" shape-rendering="crispEdges"/><rect x="102" y="87" width="8" height="4" fill="#ffffe9" opacity="0.25" shape-rendering="crispEdges"/><rect x="79" y="35" width="6" height="12" fill="#ffffe9" opacity="0.25" shape-rendering="crispEdges"/><rect x="76" y="38" width="12" height="6" fill="#ffffe9" opacity="0.25" shape-rendering="crispEdges"/><rect x="29" y="113" width="4" height="8" fill="#ffffe9" opacity="0.25" shape-rendering="crispEdges"/><rect x="27" y="115" width="8" height="4" fill="#ffffe9" opacity="0.25" shape-rendering="crispEdges"/><rect x="37" y="122" width="6" height="12" fill="#ffffe9" opacity="0.25" shape-rendering="crispEdges"/><rect x="34" y="125" width="12" height="6" fill="#ffffe9" opacity="0.25" shape-rendering="crispEdges"/>
    <polygon points="80,18 122,34 116,94 80,126 44,94 38,34" fill="#92753a" shape-rendering="crispEdges"/><polygon points="80,28 110,40 106,88 80,112 54,88 50,40" fill="#ffffe9" opacity="0.8" shape-rendering="crispEdges"/><rect x="72" y="34" width="16" height="62" fill="#4b3b18" shape-rendering="crispEdges"/><rect x="56" y="58" width="48" height="12" fill="#fff1a3" shape-rendering="crispEdges"/>
  </g>
</svg>
