<?xml version="1.0" encoding="UTF-8"?>
<svg xmlns="http://www.w3.org/2000/svg" width="160" height="160" viewBox="0 0 160 160" fill="none">
  <g shape-rendering="crispEdges">
    <rect x="64" y="124" width="4" height="8" fill="#ffffe0" opacity="0.25" shape-rendering="crispEdges"/><rect x="62" y="126" width="8" height="4" fill="#ffffe0" opacity="0.25" shape-rendering="crispEdges"/><rect x="134" y="136" width="6" height="12" fill="#ffffe0" opacity="0.25" shape-rendering="crispEdges"/><rect x="131" y="139" width="12" height="6" fill="#ffffe0" opacity="0.25" shape-rendering="crispEdges"/><rect x="46" y="84" width="4" height="8" fill="#ffffe0" opacity="0.25" shape-rendering="crispEdges"/><rect x="44" y="86" width="8" height="4" fill="#ffffe0" opacity="0.25" shape-rendering="crispEdges"/>
    <rect x="76" y="36" width="8" height="96" fill="#6d4a2a" shape-rendering="crispEdges"/><rect x="72" y="102" width="16" height="8" fill="#e5f0fe" shape-rendering="crispEdges"/><line x1="80" y1="32" x2="80" y2="120" stroke="#293b5c" stroke-width="3" stroke-linecap="square" /><circle cx="80" cy="28" r="14" fill="#5675af" shape-rendering="crispEdges"/><circle cx="80" cy="28" r="9" fill="#ffffe0" opacity="0.82" shape-rendering="crispEdges"/><polygon points="80,22 92,28 80,34 68,28" fill="#e5f0fe" shape-rendering="crispEdges"/><polygon points="80,24 86,28 80,32 74,28" fill="#ffffe0" opacity="0.76" shape-rendering="crispEdges"/>
  </g>
</svg>
