<?xml version="1.0" encoding="UTF-8"?>
<svg xmlns="http://www.w3.org/2000/svg" width="160" height="160" viewBox="0 0 160 160" fill="none">
  <g shape-rendering="crispEdges">
    <rect x="71" y="81" width="4" height="8" fill="#d7bfff" opacity="0.25" shape-rendering="crispEdges"/><rect x="69" y="83" width="8" height="4" fill="#d7bfff" opacity="0.25" shape-rendering="crispEdges"/><rect x="84" y="44" width="6" height="12" fill="#d7bfff" opacity="0.25" shape-rendering="crispEdges"/><rect x="81" y="47" width="12" height="6" fill="#d7bfff" opacity="0.25" shape-rendering="crispEdges"/><rect x="136" y="104" width="4" height="8" fill="#d7bfff" opacity="0.25" shape-rendering="crispEdges"/><rect x="134" y="106" width="8" height="4" fill="#d7bfff" opacity="0.25" shape-rendering="crispEdges"/><rect x="78" y="89" width="6" height="12" fill="#d7bfff" opacity="0.25" shape-rendering="crispEdges"/><rect x="75" y="92" width="12" height="6" fill="#d7bfff" opacity="0.25" shape-rendering="crispEdges"/>
    <polygon points="80,28 104,44 110,72 96,110 64,118 48,94 44,62 58,40" fill="#231d3a" shape-rendering="crispEdges"/><polygon points="80,38 96,50 100,72 90,100 68,106 56,88 54,64 64,48" fill="#d7bfff" opacity="0.78" shape-rendering="crispEdges"/><polygon points="84,54 93,58.5 84,63 75,58.5" fill="#774ccc" shape-rendering="crispEdges"/><polygon points="84,56 88.5,58.5 84,61 79.5,58.5" fill="#d7bfff" opacity="0.76" shape-rendering="crispEdges"/>
  </g>
</svg>
