<?xml version="1.0" encoding="UTF-8"?>
<svg xmlns="http://www.w3.org/2000/svg" width="160" height="160" viewBox="0 0 160 160" fill="none">
  <g shape-rendering="crispEdges">
    <rect x="128" y="71" width="4" height="8" fill="#ffd880" opacity="0.25" shape-rendering="crispEdges"/><rect x="126" y="73" width="8" height="4" fill="#ffd880" opacity="0.25" shape-rendering="crispEdges"/><rect x="108" y="114" width="6" height="12" fill="#ffd880" opacity="0.25" shape-rendering="crispEdges"/><rect x="105" y="117" width="12" height="6" fill="#ffd880" opacity="0.25" shape-rendering="crispEdges"/><rect x="130" y="92" width="4" height="8" fill="#ffd880" opacity="0.25" shape-rendering="crispEdges"/><rect x="128" y="94" width="8" height="4" fill="#ffd880" opacity="0.25" shape-rendering="crispEdges"/>
    <polygon points="80,22 116,40 122,82 98,126 62,126 38,82 44,40" fill="#852010" shape-rendering="crispEdges"/><polygon points="80,38 102,50 106,80 90,110 70,110 54,80 58,50" fill="#4e140a" shape-rendering="crispEdges"/><circle cx="80" cy="80" r="16" fill="#ffd880" shape-rendering="crispEdges"/><circle cx="80" cy="80" r="8" fill="#ff791c" shape-rendering="crispEdges"/>
  </g>
</svg>
