<?xml version="1.0" encoding="UTF-8"?>
<svg xmlns="http://www.w3.org/2000/svg" width="160" height="160" viewBox="0 0 160 160" fill="none">
  <g shape-rendering="crispEdges">
    <rect x="75" y="80" width="4" height="8" fill="#eaffbf" opacity="0.25" shape-rendering="crispEdges"/><rect x="73" y="82" width="8" height="4" fill="#eaffbf" opacity="0.25" shape-rendering="crispEdges"/><rect x="136" y="103" width="6" height="12" fill="#eaffbf" opacity="0.25" shape-rendering="crispEdges"/><rect x="133" y="106" width="12" height="6" fill="#eaffbf" opacity="0.25" shape-rendering="crispEdges"/><rect x="100" y="101" width="4" height="8" fill="#eaffbf" opacity="0.25" shape-rendering="crispEdges"/><rect x="98" y="103" width="8" height="4" fill="#eaffbf" opacity="0.25" shape-rendering="crispEdges"/><rect x="128" y="95" width="6" height="12" fill="#eaffbf" opacity="0.25" shape-rendering="crispEdges"/><rect x="125" y="98" width="12" height="6" fill="#eaffbf" opacity="0.25" shape-rendering="crispEdges"/>
    <polygon points="46,36 116,44 128,118 90,126 62,118 34,52" fill="#355536" shape-rendering="crispEdges"/><polygon points="56,44 106,50 116,108 88,114 64,108 44,56" fill="#eaffbf" opacity="0.78" shape-rendering="crispEdges"/><rect x="60" y="46" width="40" height="10" fill="#86dc6b" shape-rendering="crispEdges"/><polygon points="108,54 116,58 108,62 100,58" fill="#86dc6b" shape-rendering="crispEdges"/><polygon points="108,56 112,58 108,60 104,58" fill="#eaffbf" opacity="0.76" shape-rendering="crispEdges"/>
  </g>
</svg>
