<?xml version="1.0" encoding="UTF-8"?>
<svg xmlns="http://www.w3.org/2000/svg" width="160" height="160" viewBox="0 0 160 160" fill="none">
  <g shape-rendering="crispEdges">
    <rect x="97" y="103" width="4" height="8" fill="#ffffc5" opacity="0.25" shape-rendering="crispEdges"/><rect x="95" y="105" width="8" height="4" fill="#ffffc5" opacity="0.25" shape-rendering="crispEdges"/><rect x="134" y="123" width="6" height="12" fill="#ffffc5" opacity="0.25" shape-rendering="crispEdges"/><rect x="131" y="126" width="12" height="6" fill="#ffffc5" opacity="0.25" shape-rendering="crispEdges"/><rect x="51" y="96" width="4" height="8" fill="#ffffc5" opacity="0.25" shape-rendering="crispEdges"/><rect x="49" y="98" width="8" height="4" fill="#ffffc5" opacity="0.25" shape-rendering="crispEdges"/><rect x="96" y="107" width="6" height="12" fill="#ffffc5" opacity="0.25" shape-rendering="crispEdges"/><rect x="93" y="110" width="12" height="6" fill="#ffffc5" opacity="0.25" shape-rendering="crispEdges"/>
    <polygon points="54,34 106,34 118,66 108,122 52,122 42,66" fill="#39537d" shape-rendering="crispEdges"/><polygon points="62,44 98,44 108,70 98,112 62,112 52,70" fill="#ffffc5" opacity="0.76" shape-rendering="crispEdges"/><rect x="72" y="40" width="16" height="70" fill="#a2ccff" shape-rendering="crispEdges"/><rect x="58" y="72" width="48" height="8" fill="#18273f" opacity="0.5" shape-rendering="crispEdges"/>
  </g>
</svg>
