<?xml version="1.0" encoding="UTF-8"?>
<svg xmlns="http://www.w3.org/2000/svg" width="160" height="160" viewBox="0 0 160 160" fill="none">
  <g shape-rendering="crispEdges">
    <rect x="100" y="92" width="4" height="8" fill="#fff3d4" opacity="0.25" shape-rendering="crispEdges"/><rect x="98" y="94" width="8" height="4" fill="#fff3d4" opacity="0.25" shape-rendering="crispEdges"/><rect x="59" y="88" width="6" height="12" fill="#fff3d4" opacity="0.25" shape-rendering="crispEdges"/><rect x="56" y="91" width="12" height="6" fill="#fff3d4" opacity="0.25" shape-rendering="crispEdges"/><rect x="131" y="67" width="4" height="8" fill="#fff3d4" opacity="0.25" shape-rendering="crispEdges"/><rect x="129" y="69" width="8" height="4" fill="#fff3d4" opacity="0.25" shape-rendering="crispEdges"/>
    <path d="M52 118 Q42 80 52 42 L62 42 Q52 80 62 118 Z" fill="#4a69a3" shape-rendering="crispEdges"/><path d="M102 42 Q112 80 102 118 L92 118 Q102 80 92 42 Z" fill="#4a69a3" shape-rendering="crispEdges"/><line x1="58" y1="44" x2="96" y2="116" stroke="#fff3d4" stroke-width="3" stroke-linecap="square" /><line x1="58" y1="116" x2="96" y2="44" stroke="#293b5c" stroke-width="2" stroke-linecap="square" opacity="0.55"/><rect x="70" y="74" width="20" height="8" fill="#d9e4f2" shape-rendering="crispEdges"/>
  </g>
</svg>
