<?xml version="1.0" encoding="UTF-8"?>
<svg xmlns="http://www.w3.org/2000/svg" width="160" height="160" viewBox="0 0 160 160" fill="none">
  <g shape-rendering="crispEdges">
    <rect x="69" y="36" width="4" height="8" fill="#fff9b3" opacity="0.25" shape-rendering="crispEdges"/><rect x="67" y="38" width="8" height="4" fill="#fff9b3" opacity="0.25" shape-rendering="crispEdges"/><rect x="118" y="59" width="6" height="12" fill="#fff9b3" opacity="0.25" shape-rendering="crispEdges"/><rect x="115" y="62" width="12" height="6" fill="#fff9b3" opacity="0.25" shape-rendering="crispEdges"/><rect x="23" y="43" width="4" height="8" fill="#fff9b3" opacity="0.25" shape-rendering="crispEdges"/><rect x="21" y="45" width="8" height="4" fill="#fff9b3" opacity="0.25" shape-rendering="crispEdges"/><rect x="85" y="106" width="6" height="12" fill="#fff9b3" opacity="0.25" shape-rendering="crispEdges"/><rect x="82" y="109" width="12" height="6" fill="#fff9b3" opacity="0.25" shape-rendering="crispEdges"/>
    <polygon points="80,22 116,40 122,82 98,126 62,126 38,82 44,40" fill="#27416b" shape-rendering="crispEdges"/><polygon points="80,38 102,50 106,80 90,110 70,110 54,80 58,50" fill="#18273f" shape-rendering="crispEdges"/><circle cx="80" cy="80" r="16" fill="#fff9b3" shape-rendering="crispEdges"/><circle cx="80" cy="80" r="8" fill="#90baff" shape-rendering="crispEdges"/>
  </g>
</svg>
