<?xml version="1.0" encoding="UTF-8"?>
<svg xmlns="http://www.w3.org/2000/svg" width="160" height="160" viewBox="0 0 160 160" fill="none">
  <g shape-rendering="crispEdges">
    <rect x="30" y="54" width="4" height="8" fill="#fcedce" opacity="0.25" shape-rendering="crispEdges"/><rect x="28" y="56" width="8" height="4" fill="#fcedce" opacity="0.25" shape-rendering="crispEdges"/><rect x="73" y="141" width="6" height="12" fill="#fcedce" opacity="0.25" shape-rendering="crispEdges"/><rect x="70" y="144" width="12" height="6" fill="#fcedce" opacity="0.25" shape-rendering="crispEdges"/><rect x="65" y="141" width="4" height="8" fill="#fcedce" opacity="0.25" shape-rendering="crispEdges"/><rect x="63" y="143" width="8" height="4" fill="#fcedce" opacity="0.25" shape-rendering="crispEdges"/><rect x="51" y="66" width="6" height="12" fill="#fcedce" opacity="0.25" shape-rendering="crispEdges"/><rect x="48" y="69" width="12" height="6" fill="#fcedce" opacity="0.25" shape-rendering="crispEdges"/>
    <polygon points="86,28 104,40 74,90 60,78" fill="#44639d" shape-rendering="crispEdges"/><polygon points="86,32 98,40 72,82 64,76" fill="#fcedce" opacity="0.76" shape-rendering="crispEdges"/><rect x="53" y="74" width="28" height="8" fill="#d3deec" shape-rendering="crispEdges"/><rect x="57" y="82" width="10" height="24" fill="#293b5c" shape-rendering="crispEdges"/><circle cx="62" cy="110" r="6" fill="#d3deec" shape-rendering="crispEdges"/>
  </g>
</svg>
