<?xml version="1.0" encoding="UTF-8"?>
<svg xmlns="http://www.w3.org/2000/svg" width="160" height="160" viewBox="0 0 160 160" fill="none">
  <g shape-rendering="crispEdges">
    <rect x="61" y="94" width="4" height="8" fill="#ebffff" opacity="0.25" shape-rendering="crispEdges"/><rect x="59" y="96" width="8" height="4" fill="#ebffff" opacity="0.25" shape-rendering="crispEdges"/><rect x="35" y="37" width="6" height="12" fill="#ebffff" opacity="0.25" shape-rendering="crispEdges"/><rect x="32" y="40" width="12" height="6" fill="#ebffff" opacity="0.25" shape-rendering="crispEdges"/><rect x="72" y="94" width="4" height="8" fill="#ebffff" opacity="0.25" shape-rendering="crispEdges"/><rect x="70" y="96" width="8" height="4" fill="#ebffff" opacity="0.25" shape-rendering="crispEdges"/>
    <path d="M80 22 C110 28 124 54 122 82 C120 108 102 126 80 136 C58 126 40 108 38 82 C36 54 50 28 80 22 Z" fill="#36475d" /><path d="M80 34 C102 40 112 58 110 82 C108 100 96 114 80 122 C64 114 52 100 50 82 C48 58 58 40 80 34 Z" fill="#ebffff" opacity="0.78"/><rect x="72" y="42" width="16" height="10" fill="#83dade" shape-rendering="crispEdges"/>
  </g>
</svg>
