<?xml version="1.0" encoding="UTF-8"?>
<svg xmlns="http://www.w3.org/2000/svg" width="160" height="160" viewBox="0 0 160 160" fill="none">
  <g shape-rendering="crispEdges">
    <rect x="112" y="27" width="4" height="8" fill="#fffdd7" opacity="0.25" shape-rendering="crispEdges"/><rect x="110" y="29" width="8" height="4" fill="#fffdd7" opacity="0.25" shape-rendering="crispEdges"/><rect x="100" y="106" width="6" height="12" fill="#fffdd7" opacity="0.25" shape-rendering="crispEdges"/><rect x="97" y="109" width="12" height="6" fill="#fffdd7" opacity="0.25" shape-rendering="crispEdges"/><rect x="114" y="119" width="4" height="8" fill="#fffdd7" opacity="0.25" shape-rendering="crispEdges"/><rect x="112" y="121" width="8" height="4" fill="#fffdd7" opacity="0.25" shape-rendering="crispEdges"/>
    <circle cx="80" cy="44" r="18" fill="#fcdf91" shape-rendering="crispEdges"/><path d="M80 26 C92 46 106 60 106 84 C106 104 94 122 80 136 C66 122 54 104 54 84 C54 60 68 46 80 26 Z" fill="#806328" /><path d="M80 46 C88 60 94 70 94 84 C94 96 88 110 80 120 C72 110 66 96 66 84 C66 70 72 60 80 46 Z" fill="#fffdd7" opacity="0.82"/>
  </g>
</svg>
