<?xml version="1.0" encoding="UTF-8"?>
<svg xmlns="http://www.w3.org/2000/svg" width="160" height="160" viewBox="0 0 160 160" fill="none">
  <g shape-rendering="crispEdges">
    <rect x="61" y="51" width="4" height="8" fill="#f5feff" opacity="0.25" shape-rendering="crispEdges"/><rect x="59" y="53" width="8" height="4" fill="#f5feff" opacity="0.25" shape-rendering="crispEdges"/><rect x="105" y="32" width="6" height="12" fill="#f5feff" opacity="0.25" shape-rendering="crispEdges"/><rect x="102" y="35" width="12" height="6" fill="#f5feff" opacity="0.25" shape-rendering="crispEdges"/><rect x="121" y="49" width="4" height="8" fill="#f5feff" opacity="0.25" shape-rendering="crispEdges"/><rect x="119" y="51" width="8" height="4" fill="#f5feff" opacity="0.25" shape-rendering="crispEdges"/>
    <polygon points="48,30 80,20 112,30 124,72 112,118 80,130 48,118 36,72" fill="#39546e" shape-rendering="crispEdges"/><polygon points="58,36 80,28 102,36 112,72 102,108 80,118 58,108 48,72" fill="#f5feff" opacity="0.78" shape-rendering="crispEdges"/><rect x="56" y="48" width="48" height="12" fill="#9bb3c9" shape-rendering="crispEdges"/><rect x="72" y="58" width="16" height="46" fill="#1f2e3d" shape-rendering="crispEdges"/><polygon points="80,108 93,114.5 80,121 67,114.5" fill="#9bb3c9" shape-rendering="crispEdges"/><polygon points="80,110 86.5,114.5 80,119 73.5,114.5" fill="#f5feff" opacity="0.76" shape-rendering="crispEdges"/>
  </g>
</svg>
