<?xml version="1.0" encoding="UTF-8"?>
<svg xmlns="http://www.w3.org/2000/svg" width="160" height="160" viewBox="0 0 160 160" fill="none">
  <g shape-rendering="crispEdges">
    <rect x="42" y="116" width="4" height="8" fill="#e9d1ff" opacity="0.25" shape-rendering="crispEdges"/><rect x="40" y="118" width="8" height="4" fill="#e9d1ff" opacity="0.25" shape-rendering="crispEdges"/><rect x="98" y="63" width="6" height="12" fill="#e9d1ff" opacity="0.25" shape-rendering="crispEdges"/><rect x="95" y="66" width="12" height="6" fill="#e9d1ff" opacity="0.25" shape-rendering="crispEdges"/><rect x="128" y="43" width="4" height="8" fill="#e9d1ff" opacity="0.25" shape-rendering="crispEdges"/><rect x="126" y="45" width="8" height="4" fill="#e9d1ff" opacity="0.25" shape-rendering="crispEdges"/><rect x="43" y="93" width="6" height="12" fill="#e9d1ff" opacity="0.25" shape-rendering="crispEdges"/><rect x="40" y="96" width="12" height="6" fill="#e9d1ff" opacity="0.25" shape-rendering="crispEdges"/>
    <polygon points="46,36 116,44 128,118 90,126 62,118 34,52" fill="#352f4c" shape-rendering="crispEdges"/><polygon points="56,44 106,50 116,108 88,114 64,108 44,56" fill="#e9d1ff" opacity="0.78" shape-rendering="crispEdges"/><rect x="60" y="46" width="40" height="10" fill="#895ede" shape-rendering="crispEdges"/><polygon points="108,54 119,59.5 108,65 97,59.5" fill="#895ede" shape-rendering="crispEdges"/><polygon points="108,56 113.5,59.5 108,63 102.5,59.5" fill="#e9d1ff" opacity="0.76" shape-rendering="crispEdges"/>
  </g>
</svg>
