<?xml version="1.0" encoding="UTF-8"?>
<svg xmlns="http://www.w3.org/2000/svg" width="160" height="160" viewBox="0 0 160 160" fill="none">
  <g shape-rendering="crispEdges">
    <rect x="79" y="137" width="4" height="8" fill="#e3cbff" opacity="0.25" shape-rendering="crispEdges"/><rect x="77" y="139" width="8" height="4" fill="#e3cbff" opacity="0.25" shape-rendering="crispEdges"/><rect x="71" y="127" width="6" height="12" fill="#e3cbff" opacity="0.25" shape-rendering="crispEdges"/><rect x="68" y="130" width="12" height="6" fill="#e3cbff" opacity="0.25" shape-rendering="crispEdges"/>
    <polygon points="80,18 122,34 116,94 80,126 44,94 38,34" fill="#2f2946" shape-rendering="crispEdges"/><polygon points="80,28 110,40 106,88 80,112 54,88 50,40" fill="#e3cbff" opacity="0.8" shape-rendering="crispEdges"/><rect x="72" y="34" width="16" height="62" fill="#151223" shape-rendering="crispEdges"/><rect x="56" y="58" width="48" height="12" fill="#8358d8" shape-rendering="crispEdges"/><polygon points="80,92 90,97 80,102 70,97" fill="#8358d8" shape-rendering="crispEdges"/><polygon points="80,94 85,97 80,100 75,97" fill="#e3cbff" opacity="0.76" shape-rendering="crispEdges"/>
  </g>
</svg>
