<?xml version="1.0" encoding="UTF-8"?>
<svg xmlns="http://www.w3.org/2000/svg" width="160" height="160" viewBox="0 0 160 160" fill="none">
  <g shape-rendering="crispEdges">
    <rect x="34" y="39" width="4" height="8" fill="#ffecd6" opacity="0.25" shape-rendering="crispEdges"/><rect x="32" y="41" width="8" height="4" fill="#ffecd6" opacity="0.25" shape-rendering="crispEdges"/><rect x="132" y="104" width="6" height="12" fill="#ffecd6" opacity="0.25" shape-rendering="crispEdges"/><rect x="129" y="107" width="12" height="6" fill="#ffecd6" opacity="0.25" shape-rendering="crispEdges"/><rect x="44" y="71" width="4" height="8" fill="#ffecd6" opacity="0.25" shape-rendering="crispEdges"/><rect x="42" y="73" width="8" height="4" fill="#ffecd6" opacity="0.25" shape-rendering="crispEdges"/><rect x="123" y="34" width="6" height="12" fill="#ffecd6" opacity="0.25" shape-rendering="crispEdges"/><rect x="120" y="37" width="12" height="6" fill="#ffecd6" opacity="0.25" shape-rendering="crispEdges"/>
    <rect x="78" y="22" width="10" height="96" fill="#6d4a2a" shape-rendering="crispEdges"/><polygon points="88,30 122,42 112,74 88,66" fill="#6d2834" shape-rendering="crispEdges"/><polygon points="90,36 114,44 106,66 90,60" fill="#ffecd6" opacity="0.82" shape-rendering="crispEdges"/><polygon points="78,34 52,48 60,76 78,66" fill="#fd7370" shape-rendering="crispEdges"/><rect x="74" y="22" width="18" height="8" fill="#360e15" shape-rendering="crispEdges"/>
  </g>
</svg>
