<?xml version="1.0" encoding="UTF-8"?>
<svg xmlns="http://www.w3.org/2000/svg" width="160" height="160" viewBox="0 0 160 160" fill="none">
  <g shape-rendering="crispEdges">
    <rect x="69" y="60" width="4" height="8" fill="#fcedce" opacity="0.25" shape-rendering="crispEdges"/><rect x="67" y="62" width="8" height="4" fill="#fcedce" opacity="0.25" shape-rendering="crispEdges"/><rect x="43" y="58" width="6" height="12" fill="#fcedce" opacity="0.25" shape-rendering="crispEdges"/><rect x="40" y="61" width="12" height="6" fill="#fcedce" opacity="0.25" shape-rendering="crispEdges"/><rect x="54" y="98" width="4" height="8" fill="#fcedce" opacity="0.25" shape-rendering="crispEdges"/><rect x="52" y="100" width="8" height="4" fill="#fcedce" opacity="0.25" shape-rendering="crispEdges"/>
    <rect x="76" y="36" width="8" height="96" fill="#6d4a2a" shape-rendering="crispEdges"/><rect x="72" y="102" width="16" height="8" fill="#d3deec" shape-rendering="crispEdges"/><line x1="80" y1="32" x2="80" y2="120" stroke="#293b5c" stroke-width="3" stroke-linecap="square" /><circle cx="80" cy="28" r="14" fill="#44639d" shape-rendering="crispEdges"/><circle cx="80" cy="28" r="9" fill="#fcedce" opacity="0.82" shape-rendering="crispEdges"/><polygon points="80,22 93,28.5 80,35 67,28.5" fill="#d3deec" shape-rendering="crispEdges"/><polygon points="80,24 86.5,28.5 80,33 73.5,28.5" fill="#fcedce" opacity="0.76" shape-rendering="crispEdges"/>
  </g>
</svg>
