<?xml version="1.0" encoding="UTF-8"?>
<svg xmlns="http://www.w3.org/2000/svg" width="160" height="160" viewBox="0 0 160 160" fill="none">
  <g shape-rendering="crispEdges">
    <rect x="60" y="40" width="4" height="8" fill="#eff8ff" opacity="0.25" shape-rendering="crispEdges"/><rect x="58" y="42" width="8" height="4" fill="#eff8ff" opacity="0.25" shape-rendering="crispEdges"/><rect x="43" y="84" width="6" height="12" fill="#eff8ff" opacity="0.25" shape-rendering="crispEdges"/><rect x="40" y="87" width="12" height="6" fill="#eff8ff" opacity="0.25" shape-rendering="crispEdges"/><rect x="101" y="68" width="4" height="8" fill="#eff8ff" opacity="0.25" shape-rendering="crispEdges"/><rect x="99" y="70" width="8" height="4" fill="#eff8ff" opacity="0.25" shape-rendering="crispEdges"/><rect x="60" y="77" width="6" height="12" fill="#eff8ff" opacity="0.25" shape-rendering="crispEdges"/><rect x="57" y="80" width="12" height="6" fill="#eff8ff" opacity="0.25" shape-rendering="crispEdges"/>
    <polygon points="48,30 80,20 112,30 124,72 112,118 80,130 48,118 36,72" fill="#334e68" shape-rendering="crispEdges"/><polygon points="58,36 80,28 102,36 112,72 102,108 80,118 58,108 48,72" fill="#eff8ff" opacity="0.78" shape-rendering="crispEdges"/><rect x="56" y="48" width="48" height="12" fill="#95adc3" shape-rendering="crispEdges"/><rect x="72" y="58" width="16" height="46" fill="#1f2e3d" shape-rendering="crispEdges"/>
  </g>
</svg>
