<?xml version="1.0" encoding="UTF-8"?>
<svg xmlns="http://www.w3.org/2000/svg" width="160" height="160" viewBox="0 0 160 160" fill="none">
  <g shape-rendering="crispEdges">
    <rect x="98" y="137" width="4" height="8" fill="#ebffff" opacity="0.25" shape-rendering="crispEdges"/><rect x="96" y="139" width="8" height="4" fill="#ebffff" opacity="0.25" shape-rendering="crispEdges"/><rect x="58" y="74" width="6" height="12" fill="#ebffff" opacity="0.25" shape-rendering="crispEdges"/><rect x="55" y="77" width="12" height="6" fill="#ebffff" opacity="0.25" shape-rendering="crispEdges"/><rect x="94" y="61" width="4" height="8" fill="#ebffff" opacity="0.25" shape-rendering="crispEdges"/><rect x="92" y="63" width="8" height="4" fill="#ebffff" opacity="0.25" shape-rendering="crispEdges"/><rect x="31" y="103" width="6" height="12" fill="#ebffff" opacity="0.25" shape-rendering="crispEdges"/><rect x="28" y="106" width="12" height="6" fill="#ebffff" opacity="0.25" shape-rendering="crispEdges"/>
    <polygon points="80,28 104,44 110,72 96,110 64,118 48,94 44,62 58,40" fill="#36475d" shape-rendering="crispEdges"/><polygon points="80,38 96,50 100,72 90,100 68,106 56,88 54,64 64,48" fill="#ebffff" opacity="0.78" shape-rendering="crispEdges"/><polygon points="84,54 95,59.5 84,65 73,59.5" fill="#83dade" shape-rendering="crispEdges"/><polygon points="84,56 89.5,59.5 84,63 78.5,59.5" fill="#ebffff" opacity="0.76" shape-rendering="crispEdges"/>
  </g>
</svg>
