<?xml version="1.0" encoding="UTF-8"?>
<svg xmlns="http://www.w3.org/2000/svg" width="160" height="160" viewBox="0 0 160 160" fill="none">
  <g shape-rendering="crispEdges">
    <rect x="88" y="110" width="4" height="8" fill="#e9d1ff" opacity="0.25" shape-rendering="crispEdges"/><rect x="86" y="112" width="8" height="4" fill="#e9d1ff" opacity="0.25" shape-rendering="crispEdges"/><rect x="24" y="45" width="6" height="12" fill="#e9d1ff" opacity="0.25" shape-rendering="crispEdges"/><rect x="21" y="48" width="12" height="6" fill="#e9d1ff" opacity="0.25" shape-rendering="crispEdges"/><rect x="37" y="49" width="4" height="8" fill="#e9d1ff" opacity="0.25" shape-rendering="crispEdges"/><rect x="35" y="51" width="8" height="4" fill="#e9d1ff" opacity="0.25" shape-rendering="crispEdges"/>
    <polygon points="48,30 80,20 112,30 124,72 112,118 80,130 48,118 36,72" fill="#352f4c" shape-rendering="crispEdges"/><polygon points="58,36 80,28 102,36 112,72 102,108 80,118 58,108 48,72" fill="#e9d1ff" opacity="0.78" shape-rendering="crispEdges"/><rect x="56" y="48" width="48" height="12" fill="#895ede" shape-rendering="crispEdges"/><rect x="72" y="58" width="16" height="46" fill="#151223" shape-rendering="crispEdges"/><polygon points="80,108 91,113.5 80,119 69,113.5" fill="#895ede" shape-rendering="crispEdges"/><polygon points="80,110 85.5,113.5 80,117 74.5,113.5" fill="#e9d1ff" opacity="0.76" shape-rendering="crispEdges"/>
  </g>
</svg>
