<?xml version="1.0" encoding="UTF-8"?>
<svg xmlns="http://www.w3.org/2000/svg" width="160" height="160" viewBox="0 0 160 160" fill="none">
  <g shape-rendering="crispEdges">
    <rect x="79" y="83" width="4" height="8" fill="#faffff" opacity="0.25" shape-rendering="crispEdges"/><rect x="77" y="85" width="8" height="4" fill="#faffff" opacity="0.25" shape-rendering="crispEdges"/><rect x="90" y="129" width="6" height="12" fill="#faffff" opacity="0.25" shape-rendering="crispEdges"/><rect x="87" y="132" width="12" height="6" fill="#faffff" opacity="0.25" shape-rendering="crispEdges"/>
    <polygon points="48,30 80,20 112,30 124,72 112,118 80,130 48,118 36,72" fill="#4c5f71" shape-rendering="crispEdges"/><polygon points="58,36 80,28 102,36 112,72 102,108 80,118 58,108 48,72" fill="#faffff" opacity="0.78" shape-rendering="crispEdges"/><rect x="56" y="48" width="48" height="12" fill="#8fe6ea" shape-rendering="crispEdges"/><rect x="72" y="58" width="16" height="46" fill="#26313c" shape-rendering="crispEdges"/><polygon points="80,108 92,114 80,120 68,114" fill="#8fe6ea" shape-rendering="crispEdges"/><polygon points="80,110 86,114 80,118 74,114" fill="#faffff" opacity="0.76" shape-rendering="crispEdges"/>
  </g>
</svg>
