<?xml version="1.0" encoding="UTF-8"?>
<svg xmlns="http://www.w3.org/2000/svg" width="160" height="160" viewBox="0 0 160 160" fill="none">
  <g shape-rendering="crispEdges">
    <rect x="43" y="103" width="4" height="8" fill="#ffffc5" opacity="0.25" shape-rendering="crispEdges"/><rect x="41" y="105" width="8" height="4" fill="#ffffc5" opacity="0.25" shape-rendering="crispEdges"/><rect x="81" y="63" width="6" height="12" fill="#ffffc5" opacity="0.25" shape-rendering="crispEdges"/><rect x="78" y="66" width="12" height="6" fill="#ffffc5" opacity="0.25" shape-rendering="crispEdges"/><rect x="23" y="84" width="4" height="8" fill="#ffffc5" opacity="0.25" shape-rendering="crispEdges"/><rect x="21" y="86" width="8" height="4" fill="#ffffc5" opacity="0.25" shape-rendering="crispEdges"/>
    <polygon points="48,30 80,20 112,30 124,72 112,118 80,130 48,118 36,72" fill="#39537d" shape-rendering="crispEdges"/><polygon points="58,36 80,28 102,36 112,72 102,108 80,118 58,108 48,72" fill="#ffffc5" opacity="0.78" shape-rendering="crispEdges"/><rect x="56" y="48" width="48" height="12" fill="#a2ccff" shape-rendering="crispEdges"/><rect x="72" y="58" width="16" height="46" fill="#18273f" shape-rendering="crispEdges"/><polygon points="80,108 89,112.5 80,117 71,112.5" fill="#a2ccff" shape-rendering="crispEdges"/><polygon points="80,110 84.5,112.5 80,115 75.5,112.5" fill="#ffffc5" opacity="0.76" shape-rendering="crispEdges"/>
  </g>
</svg>
