<?xml version="1.0" encoding="UTF-8"?>
<svg xmlns="http://www.w3.org/2000/svg" width="160" height="160" viewBox="0 0 160 160" fill="none">
  <g shape-rendering="crispEdges">
    <rect x="125" y="56" width="4" height="8" fill="#fff1ba" opacity="0.25" shape-rendering="crispEdges"/><rect x="123" y="58" width="8" height="4" fill="#fff1ba" opacity="0.25" shape-rendering="crispEdges"/><rect x="31" y="131" width="6" height="12" fill="#fff1ba" opacity="0.25" shape-rendering="crispEdges"/><rect x="28" y="134" width="12" height="6" fill="#fff1ba" opacity="0.25" shape-rendering="crispEdges"/><rect x="117" y="79" width="4" height="8" fill="#fff1ba" opacity="0.25" shape-rendering="crispEdges"/><rect x="115" y="81" width="8" height="4" fill="#fff1ba" opacity="0.25" shape-rendering="crispEdges"/><rect x="114" y="129" width="6" height="12" fill="#fff1ba" opacity="0.25" shape-rendering="crispEdges"/><rect x="111" y="132" width="12" height="6" fill="#fff1ba" opacity="0.25" shape-rendering="crispEdges"/>
    <polygon points="80,18 122,34 116,94 80,126 44,94 38,34" fill="#526174" shape-rendering="crispEdges"/><polygon points="80,28 110,40 106,88 80,112 54,88 50,40" fill="#fff1ba" opacity="0.8" shape-rendering="crispEdges"/><rect x="72" y="34" width="16" height="62" fill="#262f3a" shape-rendering="crispEdges"/><rect x="56" y="58" width="48" height="12" fill="#eef6ff" shape-rendering="crispEdges"/>
  </g>
</svg>
