<?xml version="1.0" encoding="UTF-8"?>
<svg xmlns="http://www.w3.org/2000/svg" width="160" height="160" viewBox="0 0 160 160" fill="none">
  <g shape-rendering="crispEdges">
    <rect x="122" y="105" width="4" height="8" fill="#ebffff" opacity="0.25" shape-rendering="crispEdges"/><rect x="120" y="107" width="8" height="4" fill="#ebffff" opacity="0.25" shape-rendering="crispEdges"/><rect x="108" y="85" width="6" height="12" fill="#ebffff" opacity="0.25" shape-rendering="crispEdges"/><rect x="105" y="88" width="12" height="6" fill="#ebffff" opacity="0.25" shape-rendering="crispEdges"/><rect x="132" y="53" width="4" height="8" fill="#ebffff" opacity="0.25" shape-rendering="crispEdges"/><rect x="130" y="55" width="8" height="4" fill="#ebffff" opacity="0.25" shape-rendering="crispEdges"/>
    <polygon points="80,20 118,40 106,84 124,126 80,112 36,126 54,84 42,40" fill="#36475d" shape-rendering="crispEdges"/><rect x="72" y="34" width="16" height="52" fill="#ebffff" opacity="0.78" shape-rendering="crispEdges"/><rect x="50" y="58" width="60" height="12" fill="#83dade" shape-rendering="crispEdges"/><polygon points="80,98 89,102.5 80,107 71,102.5" fill="#83dade" shape-rendering="crispEdges"/><polygon points="80,100 84.5,102.5 80,105 75.5,102.5" fill="#ebffff" opacity="0.76" shape-rendering="crispEdges"/>
  </g>
</svg>
