<?xml version="1.0" encoding="UTF-8"?>
<svg xmlns="http://www.w3.org/2000/svg" width="160" height="160" viewBox="0 0 160 160" fill="none">
  <g shape-rendering="crispEdges">
    <rect x="81" y="96" width="4" height="8" fill="#e4ffb9" opacity="0.25" shape-rendering="crispEdges"/><rect x="79" y="98" width="8" height="4" fill="#e4ffb9" opacity="0.25" shape-rendering="crispEdges"/><rect x="26" y="113" width="6" height="12" fill="#e4ffb9" opacity="0.25" shape-rendering="crispEdges"/><rect x="23" y="116" width="12" height="6" fill="#e4ffb9" opacity="0.25" shape-rendering="crispEdges"/><rect x="77" y="41" width="4" height="8" fill="#e4ffb9" opacity="0.25" shape-rendering="crispEdges"/><rect x="75" y="43" width="8" height="4" fill="#e4ffb9" opacity="0.25" shape-rendering="crispEdges"/><rect x="96" y="63" width="6" height="12" fill="#e4ffb9" opacity="0.25" shape-rendering="crispEdges"/><rect x="93" y="66" width="12" height="6" fill="#e4ffb9" opacity="0.25" shape-rendering="crispEdges"/>
    <path d="M80 20 C106 26 124 46 122 78 C120 106 102 126 80 140 C58 126 40 106 38 78 C36 46 54 26 80 20 Z" fill="#2f4f30" /><path d="M62 66 C70 52 90 48 102 60 C92 60 84 66 80 80 C74 72 68 68 62 66 Z" fill="#e4ffb9" opacity="0.8"/><circle cx="72" cy="96" r="8" fill="#80d665" shape-rendering="crispEdges"/><circle cx="92" cy="104" r="6" fill="#80d665" shape-rendering="crispEdges"/>
  </g>
</svg>
