<?xml version="1.0" encoding="UTF-8"?>
<svg xmlns="http://www.w3.org/2000/svg" width="160" height="160" viewBox="0 0 160 160" fill="none">
  <g shape-rendering="crispEdges">
    <rect x="82" y="55" width="4" height="8" fill="#ebffff" opacity="0.25" shape-rendering="crispEdges"/><rect x="80" y="57" width="8" height="4" fill="#ebffff" opacity="0.25" shape-rendering="crispEdges"/><rect x="59" y="137" width="6" height="12" fill="#ebffff" opacity="0.25" shape-rendering="crispEdges"/><rect x="56" y="140" width="12" height="6" fill="#ebffff" opacity="0.25" shape-rendering="crispEdges"/><rect x="91" y="68" width="4" height="8" fill="#ebffff" opacity="0.25" shape-rendering="crispEdges"/><rect x="89" y="70" width="8" height="4" fill="#ebffff" opacity="0.25" shape-rendering="crispEdges"/><rect x="38" y="45" width="6" height="12" fill="#ebffff" opacity="0.25" shape-rendering="crispEdges"/><rect x="35" y="48" width="12" height="6" fill="#ebffff" opacity="0.25" shape-rendering="crispEdges"/>
    <polygon points="80,22 116,40 122,82 98,126 62,126 38,82 44,40" fill="#36475d" shape-rendering="crispEdges"/><polygon points="80,38 102,50 106,80 90,110 70,110 54,80 58,50" fill="#202a37" shape-rendering="crispEdges"/><circle cx="80" cy="80" r="16" fill="#ebffff" shape-rendering="crispEdges"/><circle cx="80" cy="80" r="8" fill="#83dade" shape-rendering="crispEdges"/>
  </g>
</svg>
