<?xml version="1.0" encoding="UTF-8"?>
<svg xmlns="http://www.w3.org/2000/svg" width="160" height="160" viewBox="0 0 160 160" fill="none">
  <g shape-rendering="crispEdges">
    <rect x="46" y="80" width="4" height="8" fill="#ebffff" opacity="0.25" shape-rendering="crispEdges"/><rect x="44" y="82" width="8" height="4" fill="#ebffff" opacity="0.25" shape-rendering="crispEdges"/><rect x="23" y="77" width="6" height="12" fill="#ebffff" opacity="0.25" shape-rendering="crispEdges"/><rect x="20" y="80" width="12" height="6" fill="#ebffff" opacity="0.25" shape-rendering="crispEdges"/><rect x="103" y="120" width="4" height="8" fill="#ebffff" opacity="0.25" shape-rendering="crispEdges"/><rect x="101" y="122" width="8" height="4" fill="#ebffff" opacity="0.25" shape-rendering="crispEdges"/><rect x="104" y="36" width="6" height="12" fill="#ebffff" opacity="0.25" shape-rendering="crispEdges"/><rect x="101" y="39" width="12" height="6" fill="#ebffff" opacity="0.25" shape-rendering="crispEdges"/>
    <polygon points="48,30 80,20 112,30 124,72 112,118 80,130 48,118 36,72" fill="#295470" shape-rendering="crispEdges"/><polygon points="58,36 80,28 102,36 112,72 102,108 80,118 58,108 48,72" fill="#ebffff" opacity="0.78" shape-rendering="crispEdges"/><rect x="56" y="48" width="48" height="12" fill="#73f4ff" shape-rendering="crispEdges"/><rect x="72" y="58" width="16" height="46" fill="#152e3f" shape-rendering="crispEdges"/>
  </g>
</svg>
