<?xml version="1.0" encoding="UTF-8"?>
<svg xmlns="http://www.w3.org/2000/svg" width="160" height="160" viewBox="0 0 160 160" fill="none">
  <g shape-rendering="crispEdges">
    <rect x="103" y="88" width="4" height="8" fill="#ebffff" opacity="0.25" shape-rendering="crispEdges"/><rect x="101" y="90" width="8" height="4" fill="#ebffff" opacity="0.25" shape-rendering="crispEdges"/><rect x="25" y="100" width="6" height="12" fill="#ebffff" opacity="0.25" shape-rendering="crispEdges"/><rect x="22" y="103" width="12" height="6" fill="#ebffff" opacity="0.25" shape-rendering="crispEdges"/><rect x="86" y="129" width="4" height="8" fill="#ebffff" opacity="0.25" shape-rendering="crispEdges"/><rect x="84" y="131" width="8" height="4" fill="#ebffff" opacity="0.25" shape-rendering="crispEdges"/><rect x="65" y="128" width="6" height="12" fill="#ebffff" opacity="0.25" shape-rendering="crispEdges"/><rect x="62" y="131" width="12" height="6" fill="#ebffff" opacity="0.25" shape-rendering="crispEdges"/>
    <line x1="80" y1="28" x2="80" y2="128" stroke="#6d4a2a" stroke-width="6" stroke-linecap="square" /><path d="M80 72 C52 62 38 40 40 22 C62 24 78 40 80 72 Z" fill="#36475d" /><path d="M80 90 C108 80 122 58 120 40 C98 42 82 58 80 90 Z" fill="#36475d" /><path d="M80 112 C56 110 44 94 46 76 C64 78 76 92 80 112 Z" fill="#ebffff" opacity="0.78"/>
  </g>
</svg>
