<?xml version="1.0" encoding="UTF-8"?>
<svg xmlns="http://www.w3.org/2000/svg" width="160" height="160" viewBox="0 0 160 160" fill="none">
  <g shape-rendering="crispEdges">
    <rect x="86" y="120" width="4" height="8" fill="#e8f2fe" opacity="0.25" shape-rendering="crispEdges"/><rect x="84" y="122" width="8" height="4" fill="#e8f2fe" opacity="0.25" shape-rendering="crispEdges"/><rect x="100" y="47" width="6" height="12" fill="#e8f2fe" opacity="0.25" shape-rendering="crispEdges"/><rect x="97" y="50" width="12" height="6" fill="#e8f2fe" opacity="0.25" shape-rendering="crispEdges"/><rect x="43" y="74" width="4" height="8" fill="#e8f2fe" opacity="0.25" shape-rendering="crispEdges"/><rect x="41" y="76" width="8" height="4" fill="#e8f2fe" opacity="0.25" shape-rendering="crispEdges"/><rect x="120" y="113" width="6" height="12" fill="#e8f2fe" opacity="0.25" shape-rendering="crispEdges"/><rect x="117" y="116" width="12" height="6" fill="#e8f2fe" opacity="0.25" shape-rendering="crispEdges"/>
    <polygon points="84,18 98,28 92,94 79,84" fill="#63748a" shape-rendering="crispEdges"/><polygon points="88,24 96,30 92,80 85,84" fill="#e8f2fe" opacity="0.82" shape-rendering="crispEdges"/><rect x="74" y="94" width="26" height="10" fill="#c8d4e2" shape-rendering="crispEdges"/><rect x="86" y="104" width="10" height="20" fill="#37414e" shape-rendering="crispEdges"/><circle cx="91" cy="126" r="7" fill="#c8d4e2" shape-rendering="crispEdges"/><polygon points="91,100 100,104.5 91,109 82,104.5" fill="#c8d4e2" shape-rendering="crispEdges"/><polygon points="91,102 95.5,104.5 91,107 86.5,104.5" fill="#e8f2fe" opacity="0.76" shape-rendering="crispEdges"/>
  </g>
</svg>
