<?xml version="1.0" encoding="UTF-8"?>
<svg xmlns="http://www.w3.org/2000/svg" width="160" height="160" viewBox="0 0 160 160" fill="none">
  <g shape-rendering="crispEdges">
    <rect x="117" y="95" width="4" height="8" fill="#e3cbff" opacity="0.25" shape-rendering="crispEdges"/><rect x="115" y="97" width="8" height="4" fill="#e3cbff" opacity="0.25" shape-rendering="crispEdges"/><rect x="82" y="67" width="6" height="12" fill="#e3cbff" opacity="0.25" shape-rendering="crispEdges"/><rect x="79" y="70" width="12" height="6" fill="#e3cbff" opacity="0.25" shape-rendering="crispEdges"/><rect x="39" y="128" width="4" height="8" fill="#e3cbff" opacity="0.25" shape-rendering="crispEdges"/><rect x="37" y="130" width="8" height="4" fill="#e3cbff" opacity="0.25" shape-rendering="crispEdges"/><rect x="53" y="73" width="6" height="12" fill="#e3cbff" opacity="0.25" shape-rendering="crispEdges"/><rect x="50" y="76" width="12" height="6" fill="#e3cbff" opacity="0.25" shape-rendering="crispEdges"/>
    <polygon points="46,36 116,44 128,118 90,126 62,118 34,52" fill="#2f2946" shape-rendering="crispEdges"/><polygon points="56,44 106,50 116,108 88,114 64,108 44,56" fill="#e3cbff" opacity="0.78" shape-rendering="crispEdges"/><rect x="60" y="46" width="40" height="10" fill="#8358d8" shape-rendering="crispEdges"/><polygon points="108,54 120,60 108,66 96,60" fill="#8358d8" shape-rendering="crispEdges"/><polygon points="108,56 114,60 108,64 102,60" fill="#e3cbff" opacity="0.76" shape-rendering="crispEdges"/>
  </g>
</svg>
