<?xml version="1.0" encoding="UTF-8"?>
<svg xmlns="http://www.w3.org/2000/svg" width="160" height="160" viewBox="0 0 160 160" fill="none">
  <g shape-rendering="crispEdges">
    <rect x="60" y="26" width="4" height="8" fill="#ffe0ff" opacity="0.25" shape-rendering="crispEdges"/><rect x="58" y="28" width="8" height="4" fill="#ffe0ff" opacity="0.25" shape-rendering="crispEdges"/><rect x="73" y="82" width="6" height="12" fill="#ffe0ff" opacity="0.25" shape-rendering="crispEdges"/><rect x="70" y="85" width="12" height="6" fill="#ffe0ff" opacity="0.25" shape-rendering="crispEdges"/><rect x="83" y="84" width="4" height="8" fill="#ffe0ff" opacity="0.25" shape-rendering="crispEdges"/><rect x="81" y="86" width="8" height="4" fill="#ffe0ff" opacity="0.25" shape-rendering="crispEdges"/><rect x="132" y="51" width="6" height="12" fill="#ffe0ff" opacity="0.25" shape-rendering="crispEdges"/><rect x="129" y="54" width="12" height="6" fill="#ffe0ff" opacity="0.25" shape-rendering="crispEdges"/>
    <rect x="42" y="28" width="76" height="98" fill="#3b324f" rx="6" ry="6" shape-rendering="crispEdges"/><rect x="50" y="36" width="28" height="82" fill="#ffe0ff" opacity="0.8" rx="4" ry="4" shape-rendering="crispEdges"/><rect x="82" y="36" width="28" height="82" fill="#ffe0ff" opacity="0.66" rx="4" ry="4" shape-rendering="crispEdges"/><rect x="76" y="28" width="8" height="98" fill="#191425" shape-rendering="crispEdges"/><polygon points="102,50 113,55.5 102,61 91,55.5" fill="#e777f4" shape-rendering="crispEdges"/><polygon points="102,52 107.5,55.5 102,59 96.5,55.5" fill="#ffe0ff" opacity="0.76" shape-rendering="crispEdges"/>
  </g>
</svg>
