<?xml version="1.0" encoding="UTF-8"?>
<svg xmlns="http://www.w3.org/2000/svg" width="160" height="160" viewBox="0 0 160 160" fill="none">
  <g shape-rendering="crispEdges">
    <rect x="126" y="102" width="4" height="8" fill="#e2ecf8" opacity="0.25" shape-rendering="crispEdges"/><rect x="124" y="104" width="8" height="4" fill="#e2ecf8" opacity="0.25" shape-rendering="crispEdges"/><rect x="127" y="28" width="6" height="12" fill="#e2ecf8" opacity="0.25" shape-rendering="crispEdges"/><rect x="124" y="31" width="12" height="6" fill="#e2ecf8" opacity="0.25" shape-rendering="crispEdges"/><rect x="58" y="49" width="4" height="8" fill="#e2ecf8" opacity="0.25" shape-rendering="crispEdges"/><rect x="56" y="51" width="8" height="4" fill="#e2ecf8" opacity="0.25" shape-rendering="crispEdges"/><rect x="71" y="67" width="6" height="12" fill="#e2ecf8" opacity="0.25" shape-rendering="crispEdges"/><rect x="68" y="70" width="12" height="6" fill="#e2ecf8" opacity="0.25" shape-rendering="crispEdges"/>
    <polygon points="40,94 54,46 96,30 122,58 114,110 66,126" fill="#5d6e84" shape-rendering="crispEdges"/><polygon points="52,92 62,54 94,42 112,62 106,100 72,112" fill="#e2ecf8" opacity="0.78" shape-rendering="crispEdges"/><rect x="74" y="48" width="12" height="44" fill="#c2cedc" opacity="0.56" shape-rendering="crispEdges"/>
  </g>
</svg>
