<?xml version="1.0" encoding="UTF-8"?>
<svg xmlns="http://www.w3.org/2000/svg" width="160" height="160" viewBox="0 0 160 160" fill="none">
  <g shape-rendering="crispEdges">
    <rect x="45" y="132" width="4" height="8" fill="#fbffff" opacity="0.25" shape-rendering="crispEdges"/><rect x="43" y="134" width="8" height="4" fill="#fbffff" opacity="0.25" shape-rendering="crispEdges"/><rect x="35" y="100" width="6" height="12" fill="#fbffff" opacity="0.25" shape-rendering="crispEdges"/><rect x="32" y="103" width="12" height="6" fill="#fbffff" opacity="0.25" shape-rendering="crispEdges"/><rect x="102" y="127" width="4" height="8" fill="#fbffff" opacity="0.25" shape-rendering="crispEdges"/><rect x="100" y="129" width="8" height="4" fill="#fbffff" opacity="0.25" shape-rendering="crispEdges"/><rect x="50" y="86" width="6" height="12" fill="#fbffff" opacity="0.25" shape-rendering="crispEdges"/><rect x="47" y="89" width="12" height="6" fill="#fbffff" opacity="0.25" shape-rendering="crispEdges"/>
    <polygon points="46,36 116,44 128,118 90,126 62,118 34,52" fill="#3f5a74" shape-rendering="crispEdges"/><polygon points="56,44 106,50 116,108 88,114 64,108 44,56" fill="#fbffff" opacity="0.78" shape-rendering="crispEdges"/><rect x="60" y="46" width="40" height="10" fill="#a1b9cf" shape-rendering="crispEdges"/>
  </g>
</svg>
