<?xml version="1.0" encoding="UTF-8"?>
<svg xmlns="http://www.w3.org/2000/svg" width="160" height="160" viewBox="0 0 160 160" fill="none">
  <g shape-rendering="crispEdges">
    <rect x="45" y="94" width="4" height="8" fill="#e3cbff" opacity="0.25" shape-rendering="crispEdges"/><rect x="43" y="96" width="8" height="4" fill="#e3cbff" opacity="0.25" shape-rendering="crispEdges"/><rect x="114" y="84" width="6" height="12" fill="#e3cbff" opacity="0.25" shape-rendering="crispEdges"/><rect x="111" y="87" width="12" height="6" fill="#e3cbff" opacity="0.25" shape-rendering="crispEdges"/><rect x="42" y="47" width="4" height="8" fill="#e3cbff" opacity="0.25" shape-rendering="crispEdges"/><rect x="40" y="49" width="8" height="4" fill="#e3cbff" opacity="0.25" shape-rendering="crispEdges"/><rect x="98" y="136" width="6" height="12" fill="#e3cbff" opacity="0.25" shape-rendering="crispEdges"/><rect x="95" y="139" width="12" height="6" fill="#e3cbff" opacity="0.25" shape-rendering="crispEdges"/>
    <polygon points="86,28 104,40 74,90 60,78" fill="#2f2946" shape-rendering="crispEdges"/><polygon points="86,32 98,40 72,82 64,76" fill="#e3cbff" opacity="0.76" shape-rendering="crispEdges"/><rect x="56" y="74" width="28" height="8" fill="#8358d8" shape-rendering="crispEdges"/><rect x="60" y="82" width="10" height="24" fill="#151223" shape-rendering="crispEdges"/><circle cx="65" cy="110" r="6" fill="#8358d8" shape-rendering="crispEdges"/>
  </g>
</svg>
