<?xml version="1.0" encoding="UTF-8"?>
<svg xmlns="http://www.w3.org/2000/svg" width="160" height="160" viewBox="0 0 160 160" fill="none">
  <g shape-rendering="crispEdges">
    <rect x="81" y="30" width="4" height="8" fill="#eff8ff" opacity="0.25" shape-rendering="crispEdges"/><rect x="79" y="32" width="8" height="4" fill="#eff8ff" opacity="0.25" shape-rendering="crispEdges"/><rect x="40" y="49" width="6" height="12" fill="#eff8ff" opacity="0.25" shape-rendering="crispEdges"/><rect x="37" y="52" width="12" height="6" fill="#eff8ff" opacity="0.25" shape-rendering="crispEdges"/><rect x="70" y="131" width="4" height="8" fill="#eff8ff" opacity="0.25" shape-rendering="crispEdges"/><rect x="68" y="133" width="8" height="4" fill="#eff8ff" opacity="0.25" shape-rendering="crispEdges"/><rect x="110" y="88" width="6" height="12" fill="#eff8ff" opacity="0.25" shape-rendering="crispEdges"/><rect x="107" y="91" width="12" height="6" fill="#eff8ff" opacity="0.25" shape-rendering="crispEdges"/>
    <polygon points="48,30 80,20 112,30 124,72 112,118 80,130 48,118 36,72" fill="#334e68" shape-rendering="crispEdges"/><polygon points="58,36 80,28 102,36 112,72 102,108 80,118 58,108 48,72" fill="#eff8ff" opacity="0.78" shape-rendering="crispEdges"/><rect x="56" y="48" width="48" height="12" fill="#95adc3" shape-rendering="crispEdges"/><rect x="72" y="58" width="16" height="46" fill="#1f2e3d" shape-rendering="crispEdges"/><polygon points="80,108 90,113 80,118 70,113" fill="#95adc3" shape-rendering="crispEdges"/><polygon points="80,110 85,113 80,116 75,113" fill="#eff8ff" opacity="0.76" shape-rendering="crispEdges"/>
  </g>
</svg>
