<?xml version="1.0" encoding="UTF-8"?>
<svg xmlns="http://www.w3.org/2000/svg" width="160" height="160" viewBox="0 0 160 160" fill="none">
  <g shape-rendering="crispEdges">
    <rect x="58" y="34" width="4" height="8" fill="#ffffbf" opacity="0.25" shape-rendering="crispEdges"/><rect x="56" y="36" width="8" height="4" fill="#ffffbf" opacity="0.25" shape-rendering="crispEdges"/><rect x="75" y="73" width="6" height="12" fill="#ffffbf" opacity="0.25" shape-rendering="crispEdges"/><rect x="72" y="76" width="12" height="6" fill="#ffffbf" opacity="0.25" shape-rendering="crispEdges"/><rect x="118" y="90" width="4" height="8" fill="#ffffbf" opacity="0.25" shape-rendering="crispEdges"/><rect x="116" y="92" width="8" height="4" fill="#ffffbf" opacity="0.25" shape-rendering="crispEdges"/>
    <rect x="76" y="36" width="8" height="96" fill="#6d4a2a" shape-rendering="crispEdges"/><rect x="72" y="102" width="16" height="8" fill="#9cc6ff" shape-rendering="crispEdges"/><line x1="80" y1="32" x2="80" y2="120" stroke="#18273f" stroke-width="3" stroke-linecap="square" /><circle cx="80" cy="28" r="14" fill="#334d77" shape-rendering="crispEdges"/><circle cx="80" cy="28" r="9" fill="#ffffbf" opacity="0.82" shape-rendering="crispEdges"/><polygon points="80,22 90,27 80,32 70,27" fill="#9cc6ff" shape-rendering="crispEdges"/><polygon points="80,24 85,27 80,30 75,27" fill="#ffffbf" opacity="0.76" shape-rendering="crispEdges"/><circle cx="96" cy="36" r="4" fill="#9cc6ff" opacity="0.78" shape-rendering="crispEdges"/>
  </g>
</svg>
