<?xml version="1.0" encoding="UTF-8"?>
<svg xmlns="http://www.w3.org/2000/svg" width="160" height="160" viewBox="0 0 160 160" fill="none">
  <g shape-rendering="crispEdges">
    <rect x="115" y="31" width="4" height="8" fill="#f7ffff" opacity="0.25" shape-rendering="crispEdges"/><rect x="113" y="33" width="8" height="4" fill="#f7ffff" opacity="0.25" shape-rendering="crispEdges"/><rect x="121" y="96" width="6" height="12" fill="#f7ffff" opacity="0.25" shape-rendering="crispEdges"/><rect x="118" y="99" width="12" height="6" fill="#f7ffff" opacity="0.25" shape-rendering="crispEdges"/><rect x="87" y="118" width="4" height="8" fill="#f7ffff" opacity="0.25" shape-rendering="crispEdges"/><rect x="85" y="120" width="8" height="4" fill="#f7ffff" opacity="0.25" shape-rendering="crispEdges"/><rect x="57" y="30" width="6" height="12" fill="#f7ffff" opacity="0.25" shape-rendering="crispEdges"/><rect x="54" y="33" width="12" height="6" fill="#f7ffff" opacity="0.25" shape-rendering="crispEdges"/>
    <polygon points="86,28 104,40 74,90 60,78" fill="#35607c" shape-rendering="crispEdges"/><polygon points="86,32 98,40 72,82 64,76" fill="#f7ffff" opacity="0.76" shape-rendering="crispEdges"/><rect x="57" y="74" width="28" height="8" fill="#7fffff" shape-rendering="crispEdges"/><rect x="61" y="82" width="10" height="24" fill="#152e3f" shape-rendering="crispEdges"/><circle cx="66" cy="110" r="6" fill="#7fffff" shape-rendering="crispEdges"/>
  </g>
</svg>
