<?xml version="1.0" encoding="UTF-8"?>
<svg xmlns="http://www.w3.org/2000/svg" width="160" height="160" viewBox="0 0 160 160" fill="none">
  <g shape-rendering="crispEdges">
    <rect x="108" y="130" width="4" height="8" fill="#ffde86" opacity="0.25" shape-rendering="crispEdges"/><rect x="106" y="132" width="8" height="4" fill="#ffde86" opacity="0.25" shape-rendering="crispEdges"/><rect x="33" y="132" width="6" height="12" fill="#ffde86" opacity="0.25" shape-rendering="crispEdges"/><rect x="30" y="135" width="12" height="6" fill="#ffde86" opacity="0.25" shape-rendering="crispEdges"/><rect x="22" y="38" width="4" height="8" fill="#ffde86" opacity="0.25" shape-rendering="crispEdges"/><rect x="20" y="40" width="8" height="4" fill="#ffde86" opacity="0.25" shape-rendering="crispEdges"/><rect x="86" y="73" width="6" height="12" fill="#ffde86" opacity="0.25" shape-rendering="crispEdges"/><rect x="83" y="76" width="12" height="6" fill="#ffde86" opacity="0.25" shape-rendering="crispEdges"/>
    <polygon points="80,18 122,34 116,94 80,126 44,94 38,34" fill="#8b2616" shape-rendering="crispEdges"/><polygon points="80,28 110,40 106,88 80,112 54,88 50,40" fill="#ffde86" opacity="0.8" shape-rendering="crispEdges"/><rect x="72" y="34" width="16" height="62" fill="#4e140a" shape-rendering="crispEdges"/><rect x="56" y="58" width="48" height="12" fill="#ff7f22" shape-rendering="crispEdges"/><polygon points="80,92 92,98 80,104 68,98" fill="#ff7f22" shape-rendering="crispEdges"/><polygon points="80,94 86,98 80,102 74,98" fill="#ffde86" opacity="0.76" shape-rendering="crispEdges"/>
  </g>
</svg>
