<?xml version="1.0" encoding="UTF-8"?>
<svg xmlns="http://www.w3.org/2000/svg" width="160" height="160" viewBox="0 0 160 160" fill="none">
  <g shape-rendering="crispEdges">
    <rect x="93" y="31" width="4" height="8" fill="#ffffe9" opacity="0.25" shape-rendering="crispEdges"/><rect x="91" y="33" width="8" height="4" fill="#ffffe9" opacity="0.25" shape-rendering="crispEdges"/><rect x="136" y="65" width="6" height="12" fill="#ffffe9" opacity="0.25" shape-rendering="crispEdges"/><rect x="133" y="68" width="12" height="6" fill="#ffffe9" opacity="0.25" shape-rendering="crispEdges"/><rect x="34" y="108" width="4" height="8" fill="#ffffe9" opacity="0.25" shape-rendering="crispEdges"/><rect x="32" y="110" width="8" height="4" fill="#ffffe9" opacity="0.25" shape-rendering="crispEdges"/><rect x="36" y="77" width="6" height="12" fill="#ffffe9" opacity="0.25" shape-rendering="crispEdges"/><rect x="33" y="80" width="12" height="6" fill="#ffffe9" opacity="0.25" shape-rendering="crispEdges"/>
    <polygon points="48,30 80,20 112,30 124,72 112,118 80,130 48,118 36,72" fill="#92753a" shape-rendering="crispEdges"/><polygon points="58,36 80,28 102,36 112,72 102,108 80,118 58,108 48,72" fill="#ffffe9" opacity="0.78" shape-rendering="crispEdges"/><rect x="56" y="48" width="48" height="12" fill="#fff1a3" shape-rendering="crispEdges"/><rect x="72" y="58" width="16" height="46" fill="#4b3b18" shape-rendering="crispEdges"/>
  </g>
</svg>
