<?xml version="1.0" encoding="UTF-8"?>
<svg xmlns="http://www.w3.org/2000/svg" width="160" height="160" viewBox="0 0 160 160" fill="none">
  <g shape-rendering="crispEdges">
    <rect x="85" y="56" width="4" height="8" fill="#ebffff" opacity="0.25" shape-rendering="crispEdges"/><rect x="83" y="58" width="8" height="4" fill="#ebffff" opacity="0.25" shape-rendering="crispEdges"/><rect x="128" y="140" width="6" height="12" fill="#ebffff" opacity="0.25" shape-rendering="crispEdges"/><rect x="125" y="143" width="12" height="6" fill="#ebffff" opacity="0.25" shape-rendering="crispEdges"/><rect x="99" y="72" width="4" height="8" fill="#ebffff" opacity="0.25" shape-rendering="crispEdges"/><rect x="97" y="74" width="8" height="4" fill="#ebffff" opacity="0.25" shape-rendering="crispEdges"/><rect x="80" y="97" width="6" height="12" fill="#ebffff" opacity="0.25" shape-rendering="crispEdges"/><rect x="77" y="100" width="12" height="6" fill="#ebffff" opacity="0.25" shape-rendering="crispEdges"/>
    <polygon points="40,94 54,46 96,30 122,58 114,110 66,126" fill="#36475d" shape-rendering="crispEdges"/><polygon points="52,92 62,54 94,42 112,62 106,100 72,112" fill="#ebffff" opacity="0.78" shape-rendering="crispEdges"/><rect x="74" y="48" width="12" height="44" fill="#83dade" opacity="0.56" shape-rendering="crispEdges"/>
  </g>
</svg>
