<?xml version="1.0" encoding="UTF-8"?>
<svg xmlns="http://www.w3.org/2000/svg" width="160" height="160" viewBox="0 0 160 160" fill="none">
  <g shape-rendering="crispEdges">
    <rect x="136" y="99" width="4" height="8" fill="#ebffdd" opacity="0.25" shape-rendering="crispEdges"/><rect x="134" y="101" width="8" height="4" fill="#ebffdd" opacity="0.25" shape-rendering="crispEdges"/><rect x="93" y="132" width="6" height="12" fill="#ebffdd" opacity="0.25" shape-rendering="crispEdges"/><rect x="90" y="135" width="12" height="6" fill="#ebffdd" opacity="0.25" shape-rendering="crispEdges"/><rect x="94" y="69" width="4" height="8" fill="#ebffdd" opacity="0.25" shape-rendering="crispEdges"/><rect x="92" y="71" width="8" height="4" fill="#ebffdd" opacity="0.25" shape-rendering="crispEdges"/><rect x="35" y="77" width="6" height="12" fill="#ebffdd" opacity="0.25" shape-rendering="crispEdges"/><rect x="32" y="80" width="12" height="6" fill="#ebffdd" opacity="0.25" shape-rendering="crispEdges"/>
    <polygon points="80,18 122,34 116,94 80,126 44,94 38,34" fill="#28543f" shape-rendering="crispEdges"/><polygon points="80,28 110,40 106,88 80,112 54,88 50,40" fill="#ebffdd" opacity="0.8" shape-rendering="crispEdges"/><rect x="72" y="34" width="16" height="62" fill="#152e22" shape-rendering="crispEdges"/><rect x="56" y="58" width="48" height="12" fill="#78d076" shape-rendering="crispEdges"/><polygon points="80,92 92,98 80,104 68,98" fill="#78d076" shape-rendering="crispEdges"/><polygon points="80,94 86,98 80,102 74,98" fill="#ebffdd" opacity="0.76" shape-rendering="crispEdges"/>
  </g>
</svg>
