<?xml version="1.0" encoding="UTF-8"?>
<svg xmlns="http://www.w3.org/2000/svg" width="160" height="160" viewBox="0 0 160 160" fill="none">
  <g shape-rendering="crispEdges">
    <rect x="52" y="37" width="4" height="8" fill="#ffffc5" opacity="0.25" shape-rendering="crispEdges"/><rect x="50" y="39" width="8" height="4" fill="#ffffc5" opacity="0.25" shape-rendering="crispEdges"/><rect x="112" y="70" width="6" height="12" fill="#ffffc5" opacity="0.25" shape-rendering="crispEdges"/><rect x="109" y="73" width="12" height="6" fill="#ffffc5" opacity="0.25" shape-rendering="crispEdges"/><rect x="117" y="140" width="4" height="8" fill="#ffffc5" opacity="0.25" shape-rendering="crispEdges"/><rect x="115" y="142" width="8" height="4" fill="#ffffc5" opacity="0.25" shape-rendering="crispEdges"/>
    <path d="M52 118 Q42 80 52 42 L62 42 Q52 80 62 118 Z" fill="#39537d" shape-rendering="crispEdges"/><path d="M102 42 Q112 80 102 118 L92 118 Q102 80 92 42 Z" fill="#39537d" shape-rendering="crispEdges"/><line x1="58" y1="44" x2="96" y2="116" stroke="#ffffc5" stroke-width="3" stroke-linecap="square" /><line x1="58" y1="116" x2="96" y2="44" stroke="#18273f" stroke-width="2" stroke-linecap="square" opacity="0.55"/><rect x="70" y="74" width="20" height="8" fill="#a2ccff" shape-rendering="crispEdges"/>
  </g>
</svg>
