<?xml version="1.0" encoding="UTF-8"?>
<svg xmlns="http://www.w3.org/2000/svg" width="160" height="160" viewBox="0 0 160 160" fill="none">
  <g shape-rendering="crispEdges">
    <rect x="24" y="36" width="4" height="8" fill="#ebffff" opacity="0.25" shape-rendering="crispEdges"/><rect x="22" y="38" width="8" height="4" fill="#ebffff" opacity="0.25" shape-rendering="crispEdges"/><rect x="104" y="128" width="6" height="12" fill="#ebffff" opacity="0.25" shape-rendering="crispEdges"/><rect x="101" y="131" width="12" height="6" fill="#ebffff" opacity="0.25" shape-rendering="crispEdges"/><rect x="110" y="91" width="4" height="8" fill="#ebffff" opacity="0.25" shape-rendering="crispEdges"/><rect x="108" y="93" width="8" height="4" fill="#ebffff" opacity="0.25" shape-rendering="crispEdges"/>
    <path d="M54 34 C54 26 64 20 80 20 C96 20 106 26 106 34 L106 44 L120 58 L112 118 C108 126 98 132 80 134 C62 132 52 126 48 118 L40 58 L54 44 Z" fill="#36475d" /><rect x="56" y="44" width="48" height="14" fill="#83dade" shape-rendering="crispEdges"/><rect x="62" y="62" width="36" height="34" fill="#ebffff" opacity="0.72" shape-rendering="crispEdges"/>
  </g>
</svg>
