<?xml version="1.0" encoding="UTF-8"?>
<svg xmlns="http://www.w3.org/2000/svg" width="160" height="160" viewBox="0 0 160 160" fill="none">
  <g shape-rendering="crispEdges">
    <rect x="47" y="130" width="4" height="8" fill="#e8f2fe" opacity="0.25" shape-rendering="crispEdges"/><rect x="45" y="132" width="8" height="4" fill="#e8f2fe" opacity="0.25" shape-rendering="crispEdges"/><rect x="134" y="93" width="6" height="12" fill="#e8f2fe" opacity="0.25" shape-rendering="crispEdges"/><rect x="131" y="96" width="12" height="6" fill="#e8f2fe" opacity="0.25" shape-rendering="crispEdges"/><rect x="118" y="90" width="4" height="8" fill="#e8f2fe" opacity="0.25" shape-rendering="crispEdges"/><rect x="116" y="92" width="8" height="4" fill="#e8f2fe" opacity="0.25" shape-rendering="crispEdges"/>
    <polygon points="80,18 122,34 116,94 80,126 44,94 38,34" fill="#63748a" shape-rendering="crispEdges"/><polygon points="80,28 110,40 106,88 80,112 54,88 50,40" fill="#e8f2fe" opacity="0.8" shape-rendering="crispEdges"/><rect x="72" y="34" width="16" height="62" fill="#37414e" shape-rendering="crispEdges"/><rect x="56" y="58" width="48" height="12" fill="#c8d4e2" shape-rendering="crispEdges"/><polygon points="80,92 90,97 80,102 70,97" fill="#c8d4e2" shape-rendering="crispEdges"/><polygon points="80,94 85,97 80,100 75,97" fill="#e8f2fe" opacity="0.76" shape-rendering="crispEdges"/>
  </g>
</svg>
