<?xml version="1.0" encoding="UTF-8"?>
<svg xmlns="http://www.w3.org/2000/svg" width="160" height="160" viewBox="0 0 160 160" fill="none">
  <g shape-rendering="crispEdges">
    <rect x="70" y="98" width="4" height="8" fill="#ffea92" opacity="0.25" shape-rendering="crispEdges"/><rect x="68" y="100" width="8" height="4" fill="#ffea92" opacity="0.25" shape-rendering="crispEdges"/><rect x="51" y="102" width="6" height="12" fill="#ffea92" opacity="0.25" shape-rendering="crispEdges"/><rect x="48" y="105" width="12" height="6" fill="#ffea92" opacity="0.25" shape-rendering="crispEdges"/><rect x="109" y="129" width="4" height="8" fill="#ffea92" opacity="0.25" shape-rendering="crispEdges"/><rect x="107" y="131" width="8" height="4" fill="#ffea92" opacity="0.25" shape-rendering="crispEdges"/><rect x="119" y="102" width="6" height="12" fill="#ffea92" opacity="0.25" shape-rendering="crispEdges"/><rect x="116" y="105" width="12" height="6" fill="#ffea92" opacity="0.25" shape-rendering="crispEdges"/>
    <path d="M52 118 Q42 80 52 42 L62 42 Q52 80 62 118 Z" fill="#973222" shape-rendering="crispEdges"/><path d="M102 42 Q112 80 102 118 L92 118 Q102 80 92 42 Z" fill="#973222" shape-rendering="crispEdges"/><line x1="58" y1="44" x2="96" y2="116" stroke="#ffea92" stroke-width="3" stroke-linecap="square" /><line x1="58" y1="116" x2="96" y2="44" stroke="#4e140a" stroke-width="2" stroke-linecap="square" opacity="0.55"/><rect x="70" y="74" width="20" height="8" fill="#ff8b2e" shape-rendering="crispEdges"/>
  </g>
</svg>
