<?xml version="1.0" encoding="UTF-8"?>
<svg xmlns="http://www.w3.org/2000/svg" width="160" height="160" viewBox="0 0 160 160" fill="none">
  <g shape-rendering="crispEdges">
    <rect x="101" y="34" width="4" height="8" fill="#ebffdd" opacity="0.25" shape-rendering="crispEdges"/><rect x="99" y="36" width="8" height="4" fill="#ebffdd" opacity="0.25" shape-rendering="crispEdges"/><rect x="107" y="35" width="6" height="12" fill="#ebffdd" opacity="0.25" shape-rendering="crispEdges"/><rect x="104" y="38" width="12" height="6" fill="#ebffdd" opacity="0.25" shape-rendering="crispEdges"/><rect x="27" y="137" width="4" height="8" fill="#ebffdd" opacity="0.25" shape-rendering="crispEdges"/><rect x="25" y="139" width="8" height="4" fill="#ebffdd" opacity="0.25" shape-rendering="crispEdges"/><rect x="131" y="136" width="6" height="12" fill="#ebffdd" opacity="0.25" shape-rendering="crispEdges"/><rect x="128" y="139" width="12" height="6" fill="#ebffdd" opacity="0.25" shape-rendering="crispEdges"/>
    <polygon points="46,36 116,44 128,118 90,126 62,118 34,52" fill="#28543f" shape-rendering="crispEdges"/><polygon points="56,44 106,50 116,108 88,114 64,108 44,56" fill="#ebffdd" opacity="0.78" shape-rendering="crispEdges"/><rect x="60" y="46" width="40" height="10" fill="#78d076" shape-rendering="crispEdges"/><polygon points="108,54 116,58 108,62 100,58" fill="#78d076" shape-rendering="crispEdges"/><polygon points="108,56 112,58 108,60 104,58" fill="#ebffdd" opacity="0.76" shape-rendering="crispEdges"/>
  </g>
</svg>
