<?xml version="1.0" encoding="UTF-8"?>
<svg xmlns="http://www.w3.org/2000/svg" width="160" height="160" viewBox="0 0 160 160" fill="none">
  <g shape-rendering="crispEdges">
    <rect x="31" y="124" width="4" height="8" fill="#fff3d4" opacity="0.25" shape-rendering="crispEdges"/><rect x="29" y="126" width="8" height="4" fill="#fff3d4" opacity="0.25" shape-rendering="crispEdges"/><rect x="63" y="90" width="6" height="12" fill="#fff3d4" opacity="0.25" shape-rendering="crispEdges"/><rect x="60" y="93" width="12" height="6" fill="#fff3d4" opacity="0.25" shape-rendering="crispEdges"/><rect x="90" y="113" width="4" height="8" fill="#fff3d4" opacity="0.25" shape-rendering="crispEdges"/><rect x="88" y="115" width="8" height="4" fill="#fff3d4" opacity="0.25" shape-rendering="crispEdges"/><rect x="67" y="85" width="6" height="12" fill="#fff3d4" opacity="0.25" shape-rendering="crispEdges"/><rect x="64" y="88" width="12" height="6" fill="#fff3d4" opacity="0.25" shape-rendering="crispEdges"/>
    <rect x="77" y="20" width="6" height="104" fill="#6d4a2a" shape-rendering="crispEdges"/><polygon points="80,12 94,32 80,46 66,32" fill="#4a69a3" shape-rendering="crispEdges"/><polygon points="80,18 88,32 80,40 72,32" fill="#fff3d4" opacity="0.84" shape-rendering="crispEdges"/><polygon points="84,50 114,58 84,74" fill="#d9e4f2" shape-rendering="crispEdges"/><rect x="72" y="118" width="16" height="10" fill="#293b5c" shape-rendering="crispEdges"/>
  </g>
</svg>
