<?xml version="1.0" encoding="UTF-8"?>
<svg xmlns="http://www.w3.org/2000/svg" width="160" height="160" viewBox="0 0 160 160" fill="none">
  <g shape-rendering="crispEdges">
    <rect x="100" y="29" width="4" height="8" fill="#fff3d4" opacity="0.25" shape-rendering="crispEdges"/><rect x="98" y="31" width="8" height="4" fill="#fff3d4" opacity="0.25" shape-rendering="crispEdges"/><rect x="33" y="117" width="6" height="12" fill="#fff3d4" opacity="0.25" shape-rendering="crispEdges"/><rect x="30" y="120" width="12" height="6" fill="#fff3d4" opacity="0.25" shape-rendering="crispEdges"/><rect x="105" y="99" width="4" height="8" fill="#fff3d4" opacity="0.25" shape-rendering="crispEdges"/><rect x="103" y="101" width="8" height="4" fill="#fff3d4" opacity="0.25" shape-rendering="crispEdges"/><rect x="42" y="60" width="6" height="12" fill="#fff3d4" opacity="0.25" shape-rendering="crispEdges"/><rect x="39" y="63" width="12" height="6" fill="#fff3d4" opacity="0.25" shape-rendering="crispEdges"/>
    <polygon points="86,28 104,40 74,90 60,78" fill="#4a69a3" shape-rendering="crispEdges"/><polygon points="86,32 98,40 72,82 64,76" fill="#fff3d4" opacity="0.76" shape-rendering="crispEdges"/><rect x="54" y="74" width="28" height="8" fill="#d9e4f2" shape-rendering="crispEdges"/><rect x="58" y="82" width="10" height="24" fill="#293b5c" shape-rendering="crispEdges"/><circle cx="63" cy="110" r="6" fill="#d9e4f2" shape-rendering="crispEdges"/>
  </g>
</svg>
