<?xml version="1.0" encoding="UTF-8"?>
<svg xmlns="http://www.w3.org/2000/svg" width="160" height="160" viewBox="0 0 160 160" fill="none">
  <g shape-rendering="crispEdges">
    <rect x="22" y="65" width="4" height="8" fill="#ffffdd" opacity="0.25" shape-rendering="crispEdges"/><rect x="20" y="67" width="8" height="4" fill="#ffffdd" opacity="0.25" shape-rendering="crispEdges"/><rect x="22" y="88" width="6" height="12" fill="#ffffdd" opacity="0.25" shape-rendering="crispEdges"/><rect x="19" y="91" width="12" height="6" fill="#ffffdd" opacity="0.25" shape-rendering="crispEdges"/><rect x="115" y="115" width="4" height="8" fill="#ffffdd" opacity="0.25" shape-rendering="crispEdges"/><rect x="113" y="117" width="8" height="4" fill="#ffffdd" opacity="0.25" shape-rendering="crispEdges"/>
    <polygon points="48,30 80,20 112,30 124,72 112,118 80,130 48,118 36,72" fill="#86692e" shape-rendering="crispEdges"/><polygon points="58,36 80,28 102,36 112,72 102,108 80,118 58,108 48,72" fill="#ffffdd" opacity="0.78" shape-rendering="crispEdges"/><rect x="56" y="48" width="48" height="12" fill="#ffe597" shape-rendering="crispEdges"/><rect x="72" y="58" width="16" height="46" fill="#4b3b18" shape-rendering="crispEdges"/><polygon points="80,108 88,112 80,116 72,112" fill="#ffe597" shape-rendering="crispEdges"/><polygon points="80,110 84,112 80,114 76,112" fill="#ffffdd" opacity="0.76" shape-rendering="crispEdges"/>
  </g>
</svg>
