<?xml version="1.0" encoding="UTF-8"?>
<svg xmlns="http://www.w3.org/2000/svg" width="160" height="160" viewBox="0 0 160 160" fill="none">
  <g shape-rendering="crispEdges">
    <rect x="81" y="99" width="4" height="8" fill="#fadfa8" opacity="0.25" shape-rendering="crispEdges"/><rect x="79" y="101" width="8" height="4" fill="#fadfa8" opacity="0.25" shape-rendering="crispEdges"/><rect x="122" y="60" width="6" height="12" fill="#fadfa8" opacity="0.25" shape-rendering="crispEdges"/><rect x="119" y="63" width="12" height="6" fill="#fadfa8" opacity="0.25" shape-rendering="crispEdges"/><rect x="28" y="135" width="4" height="8" fill="#fadfa8" opacity="0.25" shape-rendering="crispEdges"/><rect x="26" y="137" width="8" height="4" fill="#fadfa8" opacity="0.25" shape-rendering="crispEdges"/>
    <polygon points="80,18 122,34 116,94 80,126 44,94 38,34" fill="#404f62" shape-rendering="crispEdges"/><polygon points="80,28 110,40 106,88 80,112 54,88 50,40" fill="#fadfa8" opacity="0.8" shape-rendering="crispEdges"/><rect x="72" y="34" width="16" height="62" fill="#262f3a" shape-rendering="crispEdges"/><rect x="56" y="58" width="48" height="12" fill="#dce4ee" shape-rendering="crispEdges"/><polygon points="80,92 91,97.5 80,103 69,97.5" fill="#dce4ee" shape-rendering="crispEdges"/><polygon points="80,94 85.5,97.5 80,101 74.5,97.5" fill="#fadfa8" opacity="0.76" shape-rendering="crispEdges"/>
  </g>
</svg>
