<?xml version="1.0" encoding="UTF-8"?>
<svg xmlns="http://www.w3.org/2000/svg" width="160" height="160" viewBox="0 0 160 160" fill="none">
  <g shape-rendering="crispEdges">
    <rect x="52" y="51" width="4" height="8" fill="#e9d1ff" opacity="0.25" shape-rendering="crispEdges"/><rect x="50" y="53" width="8" height="4" fill="#e9d1ff" opacity="0.25" shape-rendering="crispEdges"/><rect x="57" y="61" width="6" height="12" fill="#e9d1ff" opacity="0.25" shape-rendering="crispEdges"/><rect x="54" y="64" width="12" height="6" fill="#e9d1ff" opacity="0.25" shape-rendering="crispEdges"/><rect x="23" y="140" width="4" height="8" fill="#e9d1ff" opacity="0.25" shape-rendering="crispEdges"/><rect x="21" y="142" width="8" height="4" fill="#e9d1ff" opacity="0.25" shape-rendering="crispEdges"/><rect x="78" y="50" width="6" height="12" fill="#e9d1ff" opacity="0.25" shape-rendering="crispEdges"/><rect x="75" y="53" width="12" height="6" fill="#e9d1ff" opacity="0.25" shape-rendering="crispEdges"/>
    <polygon points="88,18 110,28 101,106 80,96" fill="#352f4c" shape-rendering="crispEdges"/><polygon points="92,24 108,30 100,92 89,96" fill="#e9d1ff" opacity="0.82" shape-rendering="crispEdges"/><rect x="78" y="106" width="34" height="10" fill="#895ede" shape-rendering="crispEdges"/><rect x="90" y="116" width="10" height="24" fill="#151223" shape-rendering="crispEdges"/><circle cx="95" cy="142" r="7" fill="#895ede" shape-rendering="crispEdges"/><polygon points="99,112 111,118 99,124 87,118" fill="#895ede" shape-rendering="crispEdges"/><polygon points="99,114 105,118 99,122 93,118" fill="#e9d1ff" opacity="0.76" shape-rendering="crispEdges"/>
  </g>
</svg>
