<?xml version="1.0" encoding="UTF-8"?>
<svg xmlns="http://www.w3.org/2000/svg" width="160" height="160" viewBox="0 0 160 160" fill="none">
  <g shape-rendering="crispEdges">
    <rect x="55" y="68" width="4" height="8" fill="#ffea92" opacity="0.25" shape-rendering="crispEdges"/><rect x="53" y="70" width="8" height="4" fill="#ffea92" opacity="0.25" shape-rendering="crispEdges"/><rect x="40" y="58" width="6" height="12" fill="#ffea92" opacity="0.25" shape-rendering="crispEdges"/><rect x="37" y="61" width="12" height="6" fill="#ffea92" opacity="0.25" shape-rendering="crispEdges"/>
    <polygon points="48,30 80,20 112,30 124,72 112,118 80,130 48,118 36,72" fill="#973222" shape-rendering="crispEdges"/><polygon points="58,36 80,28 102,36 112,72 102,108 80,118 58,108 48,72" fill="#ffea92" opacity="0.78" shape-rendering="crispEdges"/><rect x="56" y="48" width="48" height="12" fill="#ff8b2e" shape-rendering="crispEdges"/><rect x="72" y="58" width="16" height="46" fill="#4e140a" shape-rendering="crispEdges"/><polygon points="80,108 89,112.5 80,117 71,112.5" fill="#ff8b2e" shape-rendering="crispEdges"/><polygon points="80,110 84.5,112.5 80,115 75.5,112.5" fill="#ffea92" opacity="0.76" shape-rendering="crispEdges"/>
  </g>
</svg>
