<?xml version="1.0" encoding="UTF-8"?>
<svg xmlns="http://www.w3.org/2000/svg" width="160" height="160" viewBox="0 0 160 160" fill="none">
  <g shape-rendering="crispEdges">
    <rect x="93" y="81" width="4" height="8" fill="#e5fcd7" opacity="0.25" shape-rendering="crispEdges"/><rect x="91" y="83" width="8" height="4" fill="#e5fcd7" opacity="0.25" shape-rendering="crispEdges"/><rect x="124" y="101" width="6" height="12" fill="#e5fcd7" opacity="0.25" shape-rendering="crispEdges"/><rect x="121" y="104" width="12" height="6" fill="#e5fcd7" opacity="0.25" shape-rendering="crispEdges"/><rect x="40" y="56" width="4" height="8" fill="#e5fcd7" opacity="0.25" shape-rendering="crispEdges"/><rect x="38" y="58" width="8" height="4" fill="#e5fcd7" opacity="0.25" shape-rendering="crispEdges"/>
    <line x1="80" y1="28" x2="80" y2="128" stroke="#6d4a2a" stroke-width="6" stroke-linecap="square" /><path d="M80 72 C52 62 38 40 40 22 C62 24 78 40 80 72 Z" fill="#224e39" /><path d="M80 90 C108 80 122 58 120 40 C98 42 82 58 80 90 Z" fill="#224e39" /><path d="M80 112 C56 110 44 94 46 76 C64 78 76 92 80 112 Z" fill="#e5fcd7" opacity="0.78"/>
  </g>
</svg>
