<?xml version="1.0" encoding="UTF-8"?>
<svg xmlns="http://www.w3.org/2000/svg" width="160" height="160" viewBox="0 0 160 160" fill="none">
  <g shape-rendering="crispEdges">
    <rect x="119" y="131" width="4" height="8" fill="#ebffff" opacity="0.25" shape-rendering="crispEdges"/><rect x="117" y="133" width="8" height="4" fill="#ebffff" opacity="0.25" shape-rendering="crispEdges"/><rect x="66" y="124" width="6" height="12" fill="#ebffff" opacity="0.25" shape-rendering="crispEdges"/><rect x="63" y="127" width="12" height="6" fill="#ebffff" opacity="0.25" shape-rendering="crispEdges"/><rect x="132" y="71" width="4" height="8" fill="#ebffff" opacity="0.25" shape-rendering="crispEdges"/><rect x="130" y="73" width="8" height="4" fill="#ebffff" opacity="0.25" shape-rendering="crispEdges"/><rect x="52" y="54" width="6" height="12" fill="#ebffff" opacity="0.25" shape-rendering="crispEdges"/><rect x="49" y="57" width="12" height="6" fill="#ebffff" opacity="0.25" shape-rendering="crispEdges"/>
    <polygon points="80,28 104,44 110,72 96,110 64,118 48,94 44,62 58,40" fill="#36475d" shape-rendering="crispEdges"/><polygon points="80,38 96,50 100,72 90,100 68,106 56,88 54,64 64,48" fill="#ebffff" opacity="0.78" shape-rendering="crispEdges"/><polygon points="84,54 97,60.5 84,67 71,60.5" fill="#83dade" shape-rendering="crispEdges"/><polygon points="84,56 90.5,60.5 84,65 77.5,60.5" fill="#ebffff" opacity="0.76" shape-rendering="crispEdges"/>
  </g>
</svg>
