<?xml version="1.0" encoding="UTF-8"?>
<svg xmlns="http://www.w3.org/2000/svg" width="160" height="160" viewBox="0 0 160 160" fill="none">
  <g shape-rendering="crispEdges">
    <rect x="45" y="128" width="4" height="8" fill="#ffe6d0" opacity="0.25" shape-rendering="crispEdges"/><rect x="43" y="130" width="8" height="4" fill="#ffe6d0" opacity="0.25" shape-rendering="crispEdges"/><rect x="40" y="113" width="6" height="12" fill="#ffe6d0" opacity="0.25" shape-rendering="crispEdges"/><rect x="37" y="116" width="12" height="6" fill="#ffe6d0" opacity="0.25" shape-rendering="crispEdges"/><rect x="59" y="101" width="4" height="8" fill="#ffe6d0" opacity="0.25" shape-rendering="crispEdges"/><rect x="57" y="103" width="8" height="4" fill="#ffe6d0" opacity="0.25" shape-rendering="crispEdges"/><rect x="92" y="36" width="6" height="12" fill="#ffe6d0" opacity="0.25" shape-rendering="crispEdges"/><rect x="89" y="39" width="12" height="6" fill="#ffe6d0" opacity="0.25" shape-rendering="crispEdges"/>
    <rect x="78" y="22" width="10" height="96" fill="#6d4a2a" shape-rendering="crispEdges"/><polygon points="88,30 122,42 112,74 88,66" fill="#67222e" shape-rendering="crispEdges"/><polygon points="90,36 114,44 106,66 90,60" fill="#ffe6d0" opacity="0.82" shape-rendering="crispEdges"/><polygon points="78,34 52,48 60,76 78,66" fill="#f76d6a" shape-rendering="crispEdges"/><rect x="74" y="22" width="18" height="8" fill="#360e15" shape-rendering="crispEdges"/>
  </g>
</svg>
