<?xml version="1.0" encoding="UTF-8"?>
<svg xmlns="http://www.w3.org/2000/svg" width="160" height="160" viewBox="0 0 160 160" fill="none">
  <g shape-rendering="crispEdges">
    <rect x="121" y="60" width="4" height="8" fill="#f5feff" opacity="0.25" shape-rendering="crispEdges"/><rect x="119" y="62" width="8" height="4" fill="#f5feff" opacity="0.25" shape-rendering="crispEdges"/><rect x="71" y="66" width="6" height="12" fill="#f5feff" opacity="0.25" shape-rendering="crispEdges"/><rect x="68" y="69" width="12" height="6" fill="#f5feff" opacity="0.25" shape-rendering="crispEdges"/><rect x="135" y="26" width="4" height="8" fill="#f5feff" opacity="0.25" shape-rendering="crispEdges"/><rect x="133" y="28" width="8" height="4" fill="#f5feff" opacity="0.25" shape-rendering="crispEdges"/>
    <polygon points="48,30 80,20 112,30 124,72 112,118 80,130 48,118 36,72" fill="#39546e" shape-rendering="crispEdges"/><polygon points="58,36 80,28 102,36 112,72 102,108 80,118 58,108 48,72" fill="#f5feff" opacity="0.78" shape-rendering="crispEdges"/><rect x="56" y="48" width="48" height="12" fill="#9bb3c9" shape-rendering="crispEdges"/><rect x="72" y="58" width="16" height="46" fill="#1f2e3d" shape-rendering="crispEdges"/><polygon points="80,108 88,112 80,116 72,112" fill="#9bb3c9" shape-rendering="crispEdges"/><polygon points="80,110 84,112 80,114 76,112" fill="#f5feff" opacity="0.76" shape-rendering="crispEdges"/>
  </g>
</svg>
