<?xml version="1.0" encoding="UTF-8"?>
<svg xmlns="http://www.w3.org/2000/svg" width="160" height="160" viewBox="0 0 160 160" fill="none">
  <g shape-rendering="crispEdges">
    <rect x="23" y="50" width="4" height="8" fill="#ddc5ff" opacity="0.25" shape-rendering="crispEdges"/><rect x="21" y="52" width="8" height="4" fill="#ddc5ff" opacity="0.25" shape-rendering="crispEdges"/><rect x="119" y="143" width="6" height="12" fill="#ddc5ff" opacity="0.25" shape-rendering="crispEdges"/><rect x="116" y="146" width="12" height="6" fill="#ddc5ff" opacity="0.25" shape-rendering="crispEdges"/><rect x="69" y="70" width="4" height="8" fill="#ddc5ff" opacity="0.25" shape-rendering="crispEdges"/><rect x="67" y="72" width="8" height="4" fill="#ddc5ff" opacity="0.25" shape-rendering="crispEdges"/><rect x="35" y="78" width="6" height="12" fill="#ddc5ff" opacity="0.25" shape-rendering="crispEdges"/><rect x="32" y="81" width="12" height="6" fill="#ddc5ff" opacity="0.25" shape-rendering="crispEdges"/>
    <polygon points="54,34 106,34 118,66 108,122 52,122 42,66" fill="#292340" shape-rendering="crispEdges"/><polygon points="62,44 98,44 108,70 98,112 62,112 52,70" fill="#ddc5ff" opacity="0.76" shape-rendering="crispEdges"/><rect x="72" y="40" width="16" height="70" fill="#7d52d2" shape-rendering="crispEdges"/><rect x="58" y="72" width="48" height="8" fill="#151223" opacity="0.5" shape-rendering="crispEdges"/>
  </g>
</svg>
