<?xml version="1.0" encoding="UTF-8"?>
<svg xmlns="http://www.w3.org/2000/svg" width="160" height="160" viewBox="0 0 160 160" fill="none">
  <g shape-rendering="crispEdges">
    <rect x="126" y="46" width="4" height="8" fill="#ffea92" opacity="0.25" shape-rendering="crispEdges"/><rect x="124" y="48" width="8" height="4" fill="#ffea92" opacity="0.25" shape-rendering="crispEdges"/><rect x="125" y="104" width="6" height="12" fill="#ffea92" opacity="0.25" shape-rendering="crispEdges"/><rect x="122" y="107" width="12" height="6" fill="#ffea92" opacity="0.25" shape-rendering="crispEdges"/><rect x="135" y="138" width="4" height="8" fill="#ffea92" opacity="0.25" shape-rendering="crispEdges"/><rect x="133" y="140" width="8" height="4" fill="#ffea92" opacity="0.25" shape-rendering="crispEdges"/><rect x="133" y="79" width="6" height="12" fill="#ffea92" opacity="0.25" shape-rendering="crispEdges"/><rect x="130" y="82" width="12" height="6" fill="#ffea92" opacity="0.25" shape-rendering="crispEdges"/>
    <polygon points="48,30 80,20 112,30 124,72 112,118 80,130 48,118 36,72" fill="#973222" shape-rendering="crispEdges"/><polygon points="58,36 80,28 102,36 112,72 102,108 80,118 58,108 48,72" fill="#ffea92" opacity="0.78" shape-rendering="crispEdges"/><rect x="56" y="48" width="48" height="12" fill="#ff8b2e" shape-rendering="crispEdges"/><rect x="72" y="58" width="16" height="46" fill="#4e140a" shape-rendering="crispEdges"/>
  </g>
</svg>
