<?xml version="1.0" encoding="UTF-8"?>
<svg xmlns="http://www.w3.org/2000/svg" width="160" height="160" viewBox="0 0 160 160" fill="none">
  <g shape-rendering="crispEdges">
    <rect x="118" y="81" width="4" height="8" fill="#d7bfff" opacity="0.25" shape-rendering="crispEdges"/><rect x="116" y="83" width="8" height="4" fill="#d7bfff" opacity="0.25" shape-rendering="crispEdges"/><rect x="61" y="136" width="6" height="12" fill="#d7bfff" opacity="0.25" shape-rendering="crispEdges"/><rect x="58" y="139" width="12" height="6" fill="#d7bfff" opacity="0.25" shape-rendering="crispEdges"/><rect x="126" y="75" width="4" height="8" fill="#d7bfff" opacity="0.25" shape-rendering="crispEdges"/><rect x="124" y="77" width="8" height="4" fill="#d7bfff" opacity="0.25" shape-rendering="crispEdges"/>
    <polygon points="80,22 116,40 122,82 98,126 62,126 38,82 44,40" fill="#231d3a" shape-rendering="crispEdges"/><polygon points="80,38 102,50 106,80 90,110 70,110 54,80 58,50" fill="#151223" shape-rendering="crispEdges"/><circle cx="80" cy="80" r="16" fill="#d7bfff" shape-rendering="crispEdges"/><circle cx="80" cy="80" r="8" fill="#774ccc" shape-rendering="crispEdges"/>
  </g>
</svg>
