<?xml version="1.0" encoding="UTF-8"?>
<svg xmlns="http://www.w3.org/2000/svg" width="160" height="160" viewBox="0 0 160 160" fill="none">
  <g shape-rendering="crispEdges">
    <rect x="41" y="111" width="4" height="8" fill="#ffebb4" opacity="0.25" shape-rendering="crispEdges"/><rect x="39" y="113" width="8" height="4" fill="#ffebb4" opacity="0.25" shape-rendering="crispEdges"/><rect x="76" y="136" width="6" height="12" fill="#ffebb4" opacity="0.25" shape-rendering="crispEdges"/><rect x="73" y="139" width="12" height="6" fill="#ffebb4" opacity="0.25" shape-rendering="crispEdges"/><rect x="81" y="124" width="4" height="8" fill="#ffebb4" opacity="0.25" shape-rendering="crispEdges"/><rect x="79" y="126" width="8" height="4" fill="#ffebb4" opacity="0.25" shape-rendering="crispEdges"/><rect x="90" y="114" width="6" height="12" fill="#ffebb4" opacity="0.25" shape-rendering="crispEdges"/><rect x="87" y="117" width="12" height="6" fill="#ffebb4" opacity="0.25" shape-rendering="crispEdges"/>
    <polygon points="80,18 122,34 116,94 80,126 44,94 38,34" fill="#4c5b6e" shape-rendering="crispEdges"/><polygon points="80,28 110,40 106,88 80,112 54,88 50,40" fill="#ffebb4" opacity="0.8" shape-rendering="crispEdges"/><rect x="72" y="34" width="16" height="62" fill="#262f3a" shape-rendering="crispEdges"/><rect x="56" y="58" width="48" height="12" fill="#e8f0fa" shape-rendering="crispEdges"/><polygon points="80,92 93,98.5 80,105 67,98.5" fill="#e8f0fa" shape-rendering="crispEdges"/><polygon points="80,94 86.5,98.5 80,103 73.5,98.5" fill="#ffebb4" opacity="0.76" shape-rendering="crispEdges"/>
  </g>
</svg>
