<?xml version="1.0" encoding="UTF-8"?>
<svg xmlns="http://www.w3.org/2000/svg" width="160" height="160" viewBox="0 0 160 160" fill="none">
  <g shape-rendering="crispEdges">
    <rect x="73" y="112" width="4" height="8" fill="#fae3ff" opacity="0.25" shape-rendering="crispEdges"/><rect x="71" y="114" width="8" height="4" fill="#fae3ff" opacity="0.25" shape-rendering="crispEdges"/><rect x="134" y="101" width="6" height="12" fill="#fae3ff" opacity="0.25" shape-rendering="crispEdges"/><rect x="131" y="104" width="12" height="6" fill="#fae3ff" opacity="0.25" shape-rendering="crispEdges"/><rect x="87" y="78" width="4" height="8" fill="#fae3ff" opacity="0.25" shape-rendering="crispEdges"/><rect x="85" y="80" width="8" height="4" fill="#fae3ff" opacity="0.25" shape-rendering="crispEdges"/><rect x="102" y="125" width="6" height="12" fill="#fae3ff" opacity="0.25" shape-rendering="crispEdges"/><rect x="99" y="128" width="12" height="6" fill="#fae3ff" opacity="0.25" shape-rendering="crispEdges"/>
    <polygon points="80,20 118,40 106,84 124,126 80,112 36,126 54,84 42,40" fill="#503977" shape-rendering="crispEdges"/><rect x="72" y="34" width="16" height="52" fill="#fae3ff" opacity="0.78" shape-rendering="crispEdges"/><rect x="50" y="58" width="60" height="12" fill="#c9a3ff" shape-rendering="crispEdges"/><polygon points="80,98 92,104 80,110 68,104" fill="#c9a3ff" shape-rendering="crispEdges"/><polygon points="80,100 86,104 80,108 74,104" fill="#fae3ff" opacity="0.76" shape-rendering="crispEdges"/>
  </g>
</svg>
