<?xml version="1.0" encoding="UTF-8"?>
<svg xmlns="http://www.w3.org/2000/svg" width="160" height="160" viewBox="0 0 160 160" fill="none">
  <g shape-rendering="crispEdges">
    <rect x="80" y="57" width="4" height="8" fill="#ffffff" opacity="0.25" shape-rendering="crispEdges"/><rect x="78" y="59" width="8" height="4" fill="#ffffff" opacity="0.25" shape-rendering="crispEdges"/><rect x="82" y="59" width="6" height="12" fill="#ffffff" opacity="0.25" shape-rendering="crispEdges"/><rect x="79" y="62" width="12" height="6" fill="#ffffff" opacity="0.25" shape-rendering="crispEdges"/><rect x="127" y="47" width="4" height="8" fill="#ffffff" opacity="0.25" shape-rendering="crispEdges"/><rect x="125" y="49" width="8" height="4" fill="#ffffff" opacity="0.25" shape-rendering="crispEdges"/><rect x="32" y="114" width="6" height="12" fill="#ffffff" opacity="0.25" shape-rendering="crispEdges"/><rect x="29" y="117" width="12" height="6" fill="#ffffff" opacity="0.25" shape-rendering="crispEdges"/>
    <polygon points="48,30 80,20 112,30 124,72 112,118 80,130 48,118 36,72" fill="#45607a" shape-rendering="crispEdges"/><polygon points="58,36 80,28 102,36 112,72 102,108 80,118 58,108 48,72" fill="#ffffff" opacity="0.78" shape-rendering="crispEdges"/><rect x="56" y="48" width="48" height="12" fill="#a7bfd5" shape-rendering="crispEdges"/><rect x="72" y="58" width="16" height="46" fill="#1f2e3d" shape-rendering="crispEdges"/>
  </g>
</svg>
