<?xml version="1.0" encoding="UTF-8"?>
<svg xmlns="http://www.w3.org/2000/svg" width="160" height="160" viewBox="0 0 160 160" fill="none">
  <g shape-rendering="crispEdges">
    <rect x="126" y="46" width="4" height="8" fill="#fcedce" opacity="0.25" shape-rendering="crispEdges"/><rect x="124" y="48" width="8" height="4" fill="#fcedce" opacity="0.25" shape-rendering="crispEdges"/><rect x="63" y="116" width="6" height="12" fill="#fcedce" opacity="0.25" shape-rendering="crispEdges"/><rect x="60" y="119" width="12" height="6" fill="#fcedce" opacity="0.25" shape-rendering="crispEdges"/><rect x="25" y="66" width="4" height="8" fill="#fcedce" opacity="0.25" shape-rendering="crispEdges"/><rect x="23" y="68" width="8" height="4" fill="#fcedce" opacity="0.25" shape-rendering="crispEdges"/>
    <rect x="76" y="46" width="8" height="78" fill="#6d4a2a" shape-rendering="crispEdges"/><rect x="72" y="94" width="16" height="8" fill="#d3deec" shape-rendering="crispEdges"/><line x1="80" y1="42" x2="80" y2="112" stroke="#293b5c" stroke-width="3" stroke-linecap="square" /><circle cx="80" cy="38" r="14" fill="#44639d" shape-rendering="crispEdges"/><circle cx="80" cy="38" r="9" fill="#fcedce" opacity="0.82" shape-rendering="crispEdges"/><polygon points="80,32 91,37.5 80,43 69,37.5" fill="#d3deec" shape-rendering="crispEdges"/><polygon points="80,34 85.5,37.5 80,41 74.5,37.5" fill="#fcedce" opacity="0.76" shape-rendering="crispEdges"/>
  </g>
</svg>
