<?xml version="1.0" encoding="UTF-8"?>
<svg xmlns="http://www.w3.org/2000/svg" width="160" height="160" viewBox="0 0 160 160" fill="none">
  <g shape-rendering="crispEdges">
    <rect x="66" y="90" width="4" height="8" fill="#fadfa8" opacity="0.25" shape-rendering="crispEdges"/><rect x="64" y="92" width="8" height="4" fill="#fadfa8" opacity="0.25" shape-rendering="crispEdges"/><rect x="86" y="41" width="6" height="12" fill="#fadfa8" opacity="0.25" shape-rendering="crispEdges"/><rect x="83" y="44" width="12" height="6" fill="#fadfa8" opacity="0.25" shape-rendering="crispEdges"/><rect x="83" y="100" width="4" height="8" fill="#fadfa8" opacity="0.25" shape-rendering="crispEdges"/><rect x="81" y="102" width="8" height="4" fill="#fadfa8" opacity="0.25" shape-rendering="crispEdges"/><rect x="58" y="142" width="6" height="12" fill="#fadfa8" opacity="0.25" shape-rendering="crispEdges"/><rect x="55" y="145" width="12" height="6" fill="#fadfa8" opacity="0.25" shape-rendering="crispEdges"/>
    <rect x="42" y="28" width="76" height="98" fill="#404f62" rx="6" ry="6" shape-rendering="crispEdges"/><rect x="50" y="36" width="28" height="82" fill="#fadfa8" opacity="0.8" rx="4" ry="4" shape-rendering="crispEdges"/><rect x="82" y="36" width="28" height="82" fill="#fadfa8" opacity="0.66" rx="4" ry="4" shape-rendering="crispEdges"/><rect x="76" y="28" width="8" height="98" fill="#262f3a" shape-rendering="crispEdges"/><polygon points="102,50 112,55 102,60 92,55" fill="#dce4ee" shape-rendering="crispEdges"/><polygon points="102,52 107,55 102,58 97,55" fill="#fadfa8" opacity="0.76" shape-rendering="crispEdges"/>
  </g>
</svg>
