<?xml version="1.0" encoding="UTF-8"?>
<svg xmlns="http://www.w3.org/2000/svg" width="160" height="160" viewBox="0 0 160 160" fill="none">
  <g shape-rendering="crispEdges">
    <rect x="34" y="86" width="4" height="8" fill="#fbffff" opacity="0.25" shape-rendering="crispEdges"/><rect x="32" y="88" width="8" height="4" fill="#fbffff" opacity="0.25" shape-rendering="crispEdges"/><rect x="63" y="113" width="6" height="12" fill="#fbffff" opacity="0.25" shape-rendering="crispEdges"/><rect x="60" y="116" width="12" height="6" fill="#fbffff" opacity="0.25" shape-rendering="crispEdges"/><rect x="43" y="43" width="4" height="8" fill="#fbffff" opacity="0.25" shape-rendering="crispEdges"/><rect x="41" y="45" width="8" height="4" fill="#fbffff" opacity="0.25" shape-rendering="crispEdges"/><rect x="23" y="91" width="6" height="12" fill="#fbffff" opacity="0.25" shape-rendering="crispEdges"/><rect x="20" y="94" width="12" height="6" fill="#fbffff" opacity="0.25" shape-rendering="crispEdges"/>
    <polygon points="46,36 116,44 128,118 90,126 62,118 34,52" fill="#3f5a74" shape-rendering="crispEdges"/><polygon points="56,44 106,50 116,108 88,114 64,108 44,56" fill="#fbffff" opacity="0.78" shape-rendering="crispEdges"/><rect x="60" y="46" width="40" height="10" fill="#a1b9cf" shape-rendering="crispEdges"/><polygon points="108,54 121,60.5 108,67 95,60.5" fill="#a1b9cf" shape-rendering="crispEdges"/><polygon points="108,56 114.5,60.5 108,65 101.5,60.5" fill="#fbffff" opacity="0.76" shape-rendering="crispEdges"/>
  </g>
</svg>
