<?xml version="1.0" encoding="UTF-8"?>
<svg xmlns="http://www.w3.org/2000/svg" width="160" height="160" viewBox="0 0 160 160" fill="none">
  <g shape-rendering="crispEdges">
    <rect x="135" y="80" width="4" height="8" fill="#f1ffe3" opacity="0.25" shape-rendering="crispEdges"/><rect x="133" y="82" width="8" height="4" fill="#f1ffe3" opacity="0.25" shape-rendering="crispEdges"/><rect x="111" y="116" width="6" height="12" fill="#f1ffe3" opacity="0.25" shape-rendering="crispEdges"/><rect x="108" y="119" width="12" height="6" fill="#f1ffe3" opacity="0.25" shape-rendering="crispEdges"/><rect x="53" y="83" width="4" height="8" fill="#f1ffe3" opacity="0.25" shape-rendering="crispEdges"/><rect x="51" y="85" width="8" height="4" fill="#f1ffe3" opacity="0.25" shape-rendering="crispEdges"/><rect x="115" y="115" width="6" height="12" fill="#f1ffe3" opacity="0.25" shape-rendering="crispEdges"/><rect x="112" y="118" width="12" height="6" fill="#f1ffe3" opacity="0.25" shape-rendering="crispEdges"/>
    <path d="M52 113 Q42 80 52 47 L62 47 Q52 80 62 113 Z" fill="#2e5a45" shape-rendering="crispEdges"/><path d="M102 47 Q112 80 102 113 L92 113 Q102 80 92 47 Z" fill="#2e5a45" shape-rendering="crispEdges"/><line x1="58" y1="49" x2="96" y2="111" stroke="#f1ffe3" stroke-width="3" stroke-linecap="square" /><line x1="58" y1="111" x2="96" y2="49" stroke="#152e22" stroke-width="2" stroke-linecap="square" opacity="0.55"/><rect x="70" y="74" width="20" height="8" fill="#7ed67c" shape-rendering="crispEdges"/>
  </g>
</svg>
